<svg width="300" height="300" viewBox="0 0 300 300" fill="none" xmlns="http://www.w3.org/2000/svg">
<rect width="300" height="300" fill="white"/>
<g clip-path="url(#clip0_10_12)">
<path d="M276.717 246.481L157.875 44.1835C154.337 38.161 145.663 38.161 142.125 44.1835L23.2825 246.481C19.6855 252.604 24.08 260.333 31.1575 260.333H268.841C275.919 260.333 280.314 252.604 276.717 246.481Z" fill="#464655"/>
<path d="M177.045 76.8165C139.282 104.067 114.679 148.421 114.679 198.547C114.679 220.581 119.468 241.485 127.999 260.333H268.842C275.919 260.333 280.314 252.604 276.717 246.481L177.045 76.8165Z" fill="#5B5D6E"/>
<path d="M148.098 68.869L48.894 237.737C47.609 239.924 49.1865 242.68 51.723 242.68H248.278C250.815 242.68 252.392 239.924 251.107 237.737L151.903 68.869C151.05 67.417 148.951 67.417 148.098 68.869Z" fill="#FFDC64"/>
<path d="M114.68 198.547C114.68 213.908 116.999 228.725 121.288 242.68H248.278C250.815 242.68 252.392 239.925 251.107 237.738L163.195 88.0905C133.378 115.515 114.68 154.842 114.68 198.547Z" fill="#FFF082"/>
<path d="M150.014 220.611C154.889 220.611 158.84 216.659 158.84 211.784C158.84 206.909 154.889 202.958 150.014 202.958C145.139 202.958 141.188 206.909 141.188 211.784C141.188 216.659 145.139 220.611 150.014 220.611Z" fill="#464655"/>
<path d="M141.525 128.585L145.308 185.328C145.473 187.802 147.395 189.72 149.71 189.72H150.318C152.634 189.72 154.556 187.803 154.721 185.328L158.504 128.585C158.686 125.848 156.663 123.52 154.101 123.52H145.928C143.366 123.52 141.342 125.848 141.525 128.585Z" fill="#464655"/>
<path d="M248.278 247.093H51.721C48.9715 247.093 46.411 245.61 45.0445 243.223C43.678 240.833 43.6955 237.874 45.0875 235.502L144.293 66.629C145.496 64.586 147.629 63.3665 150.004 63.3665C152.375 63.3665 154.508 64.586 155.711 66.629L254.911 235.501C256.303 237.876 256.321 240.835 254.954 243.222C253.588 245.61 251.027 247.093 248.278 247.093ZM53.6995 238.267H246.3L149.999 74.342L53.6995 238.267Z" fill="#FFC850"/>
<path d="M246.3 238.266H120.035C120.851 241.248 121.762 244.189 122.755 247.093H248.279C251.029 247.093 253.589 245.61 254.956 243.223C256.322 240.835 256.305 237.876 254.913 235.501L166.568 85.112C164.291 87.084 162.068 89.1145 159.914 91.218L246.3 238.266Z" fill="#FFDC64"/>
</g>
<defs>
<clipPath id="clip0_10_12">
<rect width="256" height="256" fill="white" transform="translate(22 22)"/>
</clipPath>
</defs>
</svg>
