<svg width="1080" height="656" viewBox="0 0 1080 656" fill="none" xmlns="http://www.w3.org/2000/svg">
<g clip-path="url(#clip0_227_15)">
<path d="M1080 655.252H0V625.719L540 611.25L1080 625.719V655.252Z" fill="#004991"/>
<path d="M921.155 7.95117H158.844V545.083H921.155V7.95117Z" fill="#57D7FF"/>
<path d="M932.441 553.032V0H147.559V553.032L0 625.719H1080L932.441 553.032ZM176.115 28.5568H903.885V524.476H176.115V28.5568Z" fill="#0092CC"/>
<path d="M340.604 370.427V148.224H705.02C711.205 169.262 730.659 184.68 753.675 184.68C781.649 184.68 804.412 161.921 804.412 133.944C804.412 105.967 781.653 83.2046 753.675 83.2046C730.659 83.2046 711.205 98.6229 705.02 119.664H312.048V370.424C291.006 376.609 275.588 396.063 275.588 419.082C275.588 447.059 298.347 469.822 326.324 469.822C354.302 469.822 377.061 447.063 377.061 419.082C377.064 396.066 361.646 376.612 340.604 370.427ZM753.675 111.765C765.905 111.765 775.855 121.718 775.855 133.948C775.855 146.177 765.908 156.127 753.675 156.127C741.442 156.127 731.496 146.181 731.496 133.948C731.499 121.714 741.445 111.765 753.675 111.765ZM326.328 441.269C314.098 441.269 304.148 431.315 304.148 419.086C304.148 406.856 314.098 396.903 326.328 396.903C338.558 396.903 348.507 406.856 348.507 419.086C348.507 431.315 338.558 441.269 326.328 441.269ZM753.675 368.106C730.57 368.106 711.065 383.644 704.955 404.806H659.879C653.694 383.764 634.24 368.346 611.224 368.346C583.246 368.346 560.487 391.105 560.487 419.086C560.487 447.066 583.246 469.825 611.224 469.825C634.24 469.825 653.694 454.407 659.879 433.366H705.078C711.342 454.283 730.741 469.582 753.672 469.582C781.646 469.582 804.408 446.823 804.408 418.842C804.412 390.868 781.653 368.106 753.675 368.106ZM611.227 441.269C598.997 441.269 589.048 431.315 589.048 419.086C589.048 406.856 598.997 396.903 611.227 396.903C623.457 396.903 633.407 406.856 633.407 419.086C633.407 431.315 623.457 441.269 611.227 441.269ZM753.675 441.025C741.445 441.025 731.496 431.072 731.496 418.842C731.496 406.612 741.442 396.663 753.675 396.663C765.908 396.663 775.855 406.609 775.855 418.842C775.855 431.072 765.908 441.025 753.675 441.025ZM753.675 225.659C730.309 225.659 710.633 241.557 704.766 263.092H454.496V370.427C433.454 376.612 418.036 396.066 418.036 419.086C418.036 447.063 440.795 469.825 468.772 469.825C496.75 469.825 519.509 447.066 519.509 419.086C519.509 396.066 504.09 376.612 483.049 370.427V291.649H705.284C711.774 312.196 731.005 327.134 753.668 327.134C781.642 327.134 804.405 304.376 804.405 276.395C804.412 248.418 781.653 225.659 753.675 225.659ZM490.959 419.086C490.959 431.315 481.009 441.269 468.779 441.269C456.549 441.269 446.6 431.315 446.6 419.086C446.6 406.856 456.549 396.903 468.779 396.903C481.009 396.903 490.959 406.856 490.959 419.086ZM753.675 298.578C741.445 298.578 731.496 288.625 731.496 276.395C731.496 264.165 741.442 254.215 753.675 254.215C765.908 254.215 775.855 264.162 775.855 276.395C775.855 288.628 765.908 298.578 753.675 298.578Z" fill="white"/>
</g>
<defs>
<clipPath id="clip0_227_15">
<rect width="1080" height="655.251" fill="white"/>
</clipPath>
</defs>
</svg>
