<svg width="147" height="89" viewBox="0 0 147 89" fill="none" xmlns="http://www.w3.org/2000/svg">
<path d="M34.05 12.66H124.63C124.95 12.6626 125.267 12.7283 125.562 12.8533C125.857 12.9784 126.125 13.1603 126.349 13.3888C126.574 13.6172 126.752 13.8876 126.872 14.1847C126.992 14.4817 127.053 14.7995 127.05 15.12V75.18C127.053 75.4999 126.992 75.8173 126.872 76.1137C126.751 76.4102 126.574 76.68 126.349 76.9076C126.124 77.1353 125.856 77.3163 125.561 77.4402C125.266 77.5642 124.95 77.6287 124.63 77.63H31.63V15.12C31.6273 14.7995 31.6878 14.4817 31.808 14.1847C31.9282 13.8876 32.1057 13.6172 32.3305 13.3888C32.5552 13.1603 32.8227 12.9784 33.1177 12.8533C33.4128 12.7283 33.7295 12.6626 34.05 12.66Z" fill="#E0F3FC"/>
<path d="M126.91 74.47H31.76V76.59H126.91V74.47Z" fill="#8BD2FC"/>
<path d="M55.63 12.8H124.79C125.435 12.8079 126.051 13.0712 126.503 13.5323C126.955 13.9933 127.205 14.6146 127.2 15.26V77.77H31.84V65.93" stroke="#000201" stroke-width="1.02" stroke-linecap="round" stroke-linejoin="round"/>
<path d="M31.84 51.67V16.22C31.84 15.5808 32.0939 14.9678 32.5458 14.5159C32.9978 14.0639 33.6108 13.81 34.25 13.81H41.63" stroke="#000201" stroke-width="1.01" stroke-linecap="round" stroke-linejoin="round"/>
<path d="M31.84 61.44V55.86" stroke="#000201" stroke-width="1.01" stroke-linecap="round" stroke-linejoin="round"/>
<path d="M122.91 18.63H36.8101V73.85H122.91V18.63Z" fill="#DCF0FF"/>
<path d="M122.91 18.63H36.8101V20.29H122.91V18.63Z" fill="#8BD2FC"/>
<path d="M122.74 73.08H37.15V73.43H122.74V73.08Z" fill="#CFABF4"/>
<path d="M36.76 45.78V36.34" stroke="#000201" stroke-width="1.01" stroke-linecap="round" stroke-linejoin="round"/>
<path d="M44.87 13.75H52.24" stroke="#000201" stroke-width="1.01" stroke-linecap="round" stroke-linejoin="round"/>
<path d="M33.52 19.61C33.484 19.6203 33.4459 19.6203 33.41 19.61C33.3742 19.604 33.3401 19.5909 33.3095 19.5714C33.2789 19.5519 33.2526 19.5265 33.2321 19.4967C33.2115 19.4668 33.1972 19.4331 33.19 19.3976C33.1828 19.3621 33.1828 19.3255 33.19 19.29L34 15.49C34.007 15.4541 34.0213 15.42 34.0419 15.3898C34.0625 15.3596 34.0891 15.3339 34.1199 15.3142C34.1508 15.2946 34.1853 15.2814 34.2214 15.2756C34.2575 15.2697 34.2945 15.2712 34.33 15.28C34.4011 15.2967 34.4629 15.3406 34.5021 15.4022C34.5414 15.4639 34.555 15.5385 34.54 15.61L33.73 19.39C33.7211 19.4435 33.6963 19.4931 33.6589 19.5324C33.6214 19.5716 33.573 19.5987 33.52 19.61Z" fill="#000201"/>
<path d="M35.17 17.49H35.06C35.0243 17.484 34.9901 17.4709 34.9595 17.4514C34.929 17.4319 34.9026 17.4065 34.8821 17.3767C34.8616 17.3468 34.8473 17.3131 34.84 17.2776C34.8328 17.2421 34.8328 17.2055 34.84 17.17L35.27 15.17C35.2772 15.1338 35.2914 15.0995 35.3119 15.0688C35.3323 15.0382 35.3587 15.0119 35.3893 14.9915C35.42 14.971 35.4544 14.9569 35.4905 14.9497C35.5267 14.9426 35.5639 14.9427 35.6 14.95C35.6361 14.9572 35.6705 14.9714 35.7011 14.9919C35.7318 15.0123 35.7581 15.0387 35.7785 15.0693C35.7989 15.1 35.8131 15.1344 35.8202 15.1705C35.8274 15.2067 35.8273 15.2439 35.82 15.28L35.39 17.28C35.3775 17.3325 35.35 17.3802 35.311 17.4175C35.272 17.4547 35.223 17.4799 35.17 17.49Z" fill="#000201"/>
<path d="M53.3 15.82H56" stroke="#000201" stroke-width="0.65" stroke-linecap="round" stroke-linejoin="round"/>
<path d="M46.62 15.82H51.86" stroke="#000201" stroke-width="0.65" stroke-linecap="round" stroke-linejoin="round"/>
<path d="M115.24 16.4H117.94" stroke="#000201" stroke-width="0.65" stroke-linecap="round" stroke-linejoin="round"/>
<path d="M108.56 16.4H113.8" stroke="#000201" stroke-width="0.65" stroke-linecap="round" stroke-linejoin="round"/>
<path d="M21.7 77.14H135.7C135.705 78.8171 135.045 80.4278 133.864 81.6183C132.682 82.8089 131.077 83.4821 129.4 83.49H28.03C26.3502 83.4874 24.7402 82.8182 23.5534 81.6295C22.3665 80.4408 21.6999 78.8298 21.7 77.15V77.14Z" fill="#E0F3FC"/>
<path d="M134.41 80.31C134.112 81.3159 133.47 82.1852 132.596 82.7663C131.723 83.3474 130.673 83.6036 129.63 83.49H28.2501C27.1159 83.6367 25.9644 83.4182 24.9628 82.8662C23.9613 82.3141 23.1616 81.4573 22.6801 80.42L134.41 80.31Z" fill="#8BD2FC"/>
<path d="M21.52 76.89H135.52C135.52 78.5688 134.853 80.1789 133.666 81.366C132.479 82.5531 130.869 83.22 129.19 83.22H27.85C26.1712 83.22 24.5611 82.5531 23.374 81.366C22.1869 80.1789 21.52 78.5688 21.52 76.89Z" stroke="#000201" stroke-width="1.1" stroke-linecap="round" stroke-linejoin="round"/>
<path d="M72 80.31H82.46" stroke="#000201" stroke-width="0.65" stroke-linecap="round" stroke-linejoin="round"/>
<path opacity="0.6" d="M87.25 73.23H85.13L98.6 18.1H100.71L87.25 73.23Z" fill="white"/>
<path opacity="0.8" d="M96.59 73.23H89.99L103.45 18.1H110.06L96.59 73.23Z" fill="white"/>
<path opacity="0.6" d="M83.96 73.23H81.85L95.31 18.1H97.43L83.96 73.23Z" fill="white"/>
<path d="M36.76 33.09V18.18H122.86V73.4H36.76V48.65" stroke="#000201" stroke-width="1.01" stroke-linecap="round" stroke-linejoin="round"/>
<path d="M41.19 27.34C42.1509 27.34 42.93 26.561 42.93 25.6C42.93 24.639 42.1509 23.86 41.19 23.86C40.229 23.86 39.45 24.639 39.45 25.6C39.45 26.561 40.229 27.34 41.19 27.34Z" fill="white"/>
<path d="M44.17 29.76C44.8162 29.76 45.34 29.2362 45.34 28.59C45.34 27.9438 44.8162 27.42 44.17 27.42C43.5238 27.42 43 27.9438 43 28.59C43 29.2362 43.5238 29.76 44.17 29.76Z" fill="white"/>
<path d="M41.05 29.38C41.4421 29.38 41.76 29.0621 41.76 28.67C41.76 28.2779 41.4421 27.96 41.05 27.96C40.6578 27.96 40.34 28.2779 40.34 28.67C40.34 29.0621 40.6578 29.38 41.05 29.38Z" fill="white"/>
<path d="M30.0699 80.15H34.2699" stroke="white" stroke-width="1.12" stroke-linecap="round" stroke-linejoin="round"/>
<path d="M27.8199 80.9C28.2342 80.9 28.5699 80.5642 28.5699 80.15C28.5699 79.7358 28.2342 79.4 27.8199 79.4C27.4057 79.4 27.0699 79.7358 27.0699 80.15C27.0699 80.5642 27.4057 80.9 27.8199 80.9Z" fill="white"/>
<path d="M79.5301 16.71C79.9332 16.71 80.26 16.3832 80.26 15.98C80.26 15.5768 79.9332 15.25 79.5301 15.25C79.1269 15.25 78.8 15.5768 78.8 15.98C78.8 16.3832 79.1269 16.71 79.5301 16.71Z" stroke="#000201" stroke-width="0.65" stroke-linecap="round" stroke-linejoin="round"/>
<path d="M49.15 0.809999L55.35 0.75L52.6 35.68L38.66 39.69L24.65 35.96L24.13 30.7" fill="#2FACDD"/>
<path d="M53.19 0.77L55.35 0.75L52.6 35.68L50.85 36.18" stroke="#232144" stroke-width="0.97" stroke-linecap="round" stroke-linejoin="round"/>
<path d="M48.8 36.69L34.47 40.82L20.07 36.98L16.51 1.14003L51.64 0.780029L48.8 36.69Z" fill="#5DC5F9"/>
<path opacity="0.38" d="M45.91 2.07002L50.5 2.02002L49.17 16.79" stroke="white" stroke-width="2" stroke-linecap="round" stroke-linejoin="round"/>
<path opacity="0.38" d="M49.98 7.77002L49.54 12.66" stroke="white" stroke-width="2" stroke-linecap="round" stroke-linejoin="round"/>
<path opacity="0.38" d="M49.82 9.60999L49.73 10.59" stroke="white" stroke-width="2" stroke-linecap="round" stroke-linejoin="round"/>
<path d="M48.51 5.03003L48.02 10.54" stroke="white" stroke-width="2" stroke-linecap="round" stroke-linejoin="round"/>
<path d="M47.1801 28.24L46.6801 33.75" stroke="white" stroke-width="2" stroke-linecap="round" stroke-linejoin="round"/>
<path d="M34.07 0.960022L34.47 40.82L20.08 36.98L16.51 1.14002L34.07 0.960022Z" fill="#E0F3FC"/>
<path d="M27.32 7.48998V11.35H26.14V7.48998H27.32ZM26.38 8.81998H29.46V9.89998H26.37L26.38 8.81998ZM29.91 7.48998V11.34H28.69V7.47998L29.91 7.48998Z" fill="#232144"/>
<path d="M30.29 7.48999H33.71V8.48999H32.63V11.28H31.44V8.49999H30.34L30.29 7.48999Z" fill="#232144"/>
<path d="M35.21 11.25H33.92L34.63 7.19998L36.36 9.26998L38.05 7.16998L38.81 11.22H37.51L37.3 9.63998L36.38 10.87L35.44 9.65998L35.21 11.25Z" fill="#232144"/>
<path d="M40.49 7.34001V10.18H42.06V11.18H39.27V7.32001L40.49 7.34001Z" fill="#232144"/>
<path opacity="0.26" d="M18.3 7.5L20.07 24.99" stroke="#029DC1" stroke-width="2" stroke-linecap="round" stroke-linejoin="round"/>
<path opacity="0.46" d="M18.9 13.4L19.49 19.19" stroke="#0084A3" stroke-width="2" stroke-linecap="round" stroke-linejoin="round"/>
<path d="M19.03 26.47L16.51 1.14L24.4 1.06" stroke="#232144" stroke-linecap="round" stroke-linejoin="round"/>
<path d="M45.27 0.850029L51.64 0.780029L48.8 36.69L34.47 40.82L20.07 36.98L19.54 31.57" stroke="#232144" stroke-linecap="round" stroke-linejoin="round"/>
<path d="M30.0699 1.00002L41.1599 0.890015" stroke="#232144" stroke-linecap="round" stroke-linejoin="round"/>
<path d="M27.02 1.03002L27.95 1.02002" stroke="#232144" stroke-linecap="round" stroke-linejoin="round"/>
<path d="M34.46 30.07L29.19 28.41L28.69 23.89L31.36 23.6L31.67 26.37L34.43 27.24L37.28 26.27L37.68 22.39L28.33 22.48L27.41 15.06L40.77 14.92L40.8 17.61L30.45 17.72L30.71 19.77L40.66 19.67L39.78 28.26L34.46 30.07Z" fill="#232144"/>
<path d="M139.2 25.91L145.4 25.85L142.64 60.78L128.7 64.8L114.7 61.06L114.17 55.8" fill="#D35500"/>
<path d="M143.24 25.87L145.4 25.85L142.64 60.78L140.89 61.28" stroke="#232144" stroke-width="0.97" stroke-linecap="round" stroke-linejoin="round"/>
<path d="M138.85 61.79L124.51 65.93L110.12 62.08L106.55 26.24L141.68 25.88L138.85 61.79Z" fill="#F9832B"/>
<path opacity="0.38" d="M135.96 27.17L140.54 27.12L139.21 41.89" stroke="white" stroke-width="2" stroke-linecap="round" stroke-linejoin="round"/>
<path opacity="0.38" d="M140.03 32.87L139.58 37.76" stroke="white" stroke-width="2" stroke-linecap="round" stroke-linejoin="round"/>
<path opacity="0.38" d="M139.86 34.71L139.77 35.69" stroke="white" stroke-width="2" stroke-linecap="round" stroke-linejoin="round"/>
<path d="M138.75 49.23L138.25 54.74" stroke="white" stroke-width="2" stroke-linecap="round" stroke-linejoin="round"/>
<path d="M124.11 26.07L124.52 65.92L110.12 62.08L106.55 26.25L124.11 26.07Z" fill="#FFCDA4"/>
<path opacity="0.26" d="M108.34 32.6L110.12 50.09" stroke="white" stroke-width="2" stroke-linecap="round" stroke-linejoin="round"/>
<path opacity="0.46" d="M108.94 38.5L109.53 44.29" stroke="white" stroke-width="2" stroke-linecap="round" stroke-linejoin="round"/>
<path d="M109.07 51.57L106.55 26.24L114.44 26.16" stroke="#232144" stroke-linecap="round" stroke-linejoin="round"/>
<path d="M135.31 25.95L141.68 25.88L138.85 61.79L124.51 65.93L110.12 62.08L109.58 56.67" stroke="#232144" stroke-linecap="round" stroke-linejoin="round"/>
<path d="M120.11 26.1L131.2 25.99" stroke="#232144" stroke-linecap="round" stroke-linejoin="round"/>
<path d="M117.06 26.13L118 26.12" stroke="#232144" stroke-linecap="round" stroke-linejoin="round"/>
<path d="M121.985 33.7886L121.448 33.794C121.414 33.6398 121.358 33.5047 121.277 33.3885C121.198 33.2723 121.101 33.1751 120.988 33.0968C120.876 33.0171 120.752 32.9577 120.616 32.9186C120.48 32.8795 120.338 32.8607 120.191 32.8622C119.922 32.865 119.679 32.9353 119.463 33.0732C119.247 33.2112 119.077 33.4129 118.951 33.6785C118.827 33.944 118.766 34.2689 118.77 34.653C118.774 35.0371 118.841 35.3607 118.971 35.6236C119.102 35.8866 119.277 36.0848 119.495 36.2184C119.714 36.3519 119.958 36.4173 120.227 36.4146C120.374 36.4131 120.515 36.3915 120.651 36.3497C120.786 36.3079 120.909 36.2467 121.019 36.1661C121.131 36.0841 121.225 35.9842 121.302 35.8665C121.38 35.7473 121.434 35.611 121.465 35.4576L122.002 35.4521C121.964 35.6793 121.892 35.8829 121.787 36.063C121.682 36.2432 121.551 36.3969 121.393 36.5241C121.236 36.6499 121.058 36.7463 120.861 36.8133C120.665 36.8803 120.455 36.9149 120.232 36.9171C119.853 36.921 119.516 36.832 119.219 36.6501C118.923 36.4682 118.689 36.2078 118.516 35.8687C118.344 35.5296 118.255 35.1261 118.25 34.6583C118.246 34.1904 118.326 33.7852 118.492 33.4427C118.657 33.1002 118.886 32.835 119.179 32.6472C119.472 32.4594 119.807 32.3635 120.186 32.3597C120.409 32.3574 120.62 32.3878 120.817 32.4508C121.015 32.5138 121.195 32.6073 121.355 32.7313C121.515 32.8539 121.649 33.0042 121.758 33.1822C121.867 33.3587 121.942 33.5608 121.985 33.7886ZM125.276 33.478C125.248 33.2587 125.141 33.0894 124.955 32.97C124.769 32.8506 124.541 32.7922 124.273 32.7949C124.076 32.7969 123.905 32.8304 123.758 32.8954C123.613 32.9605 123.5 33.049 123.419 33.161C123.339 33.273 123.3 33.3998 123.301 33.5413C123.302 33.6597 123.332 33.7612 123.389 33.8459C123.447 33.929 123.522 33.9983 123.612 34.0537C123.702 34.1077 123.796 34.1522 123.895 34.1873C123.993 34.221 124.084 34.2483 124.166 34.2691L124.618 34.3858C124.734 34.415 124.863 34.4556 125.005 34.5076C125.149 34.5595 125.286 34.6311 125.417 34.7222C125.549 34.8118 125.659 34.9277 125.745 35.0698C125.832 35.2119 125.876 35.3869 125.878 35.5949C125.881 35.8346 125.82 36.0518 125.696 36.2466C125.574 36.4414 125.394 36.597 125.155 36.7135C124.918 36.83 124.629 36.89 124.288 36.8934C123.971 36.8966 123.695 36.8481 123.462 36.748C123.229 36.6478 123.046 36.5067 122.911 36.3246C122.778 36.1425 122.702 35.9303 122.682 35.6879L123.236 35.6823C123.252 35.8496 123.31 35.9877 123.409 36.0964C123.51 36.2037 123.637 36.2833 123.789 36.3352C123.942 36.3857 124.107 36.41 124.283 36.4082C124.489 36.4061 124.672 36.3711 124.835 36.303C124.997 36.2335 125.126 36.1383 125.22 36.0175C125.314 35.8952 125.36 35.7532 125.358 35.5915C125.357 35.4442 125.314 35.3247 125.231 35.2331C125.148 35.1416 125.039 35.0676 124.904 35.0112C124.769 34.9548 124.624 34.9057 124.467 34.8639L123.92 34.7135C123.572 34.6174 123.296 34.4779 123.092 34.2951C122.888 34.1123 122.785 33.8715 122.782 33.5726C122.779 33.3242 122.844 33.1069 122.977 32.9207C123.11 32.733 123.291 32.5868 123.518 32.4819C123.747 32.3757 124.002 32.3211 124.285 32.3182C124.571 32.3153 124.826 32.364 125.049 32.4643C125.273 32.5631 125.45 32.7 125.582 32.8748C125.715 33.0497 125.787 33.249 125.796 33.4727L125.276 33.478ZM129.166 33.4386C129.138 33.2194 129.031 33.05 128.845 32.9306C128.659 32.8112 128.431 32.7528 128.163 32.7555C127.966 32.7575 127.795 32.791 127.648 32.8561C127.503 32.9211 127.39 33.0096 127.308 33.1216C127.229 33.2336 127.19 33.3604 127.191 33.5019C127.192 33.6203 127.221 33.7219 127.279 33.8065C127.337 33.8897 127.412 33.9589 127.502 34.0144C127.592 34.0683 127.686 34.1129 127.785 34.148C127.883 34.1816 127.974 34.2089 128.056 34.2297L128.508 34.3464C128.624 34.3756 128.753 34.4162 128.895 34.4682C129.038 34.5202 129.176 34.5917 129.306 34.6828C129.439 34.7725 129.548 34.8883 129.635 35.0304C129.722 35.1725 129.766 35.3475 129.768 35.5555C129.77 35.7952 129.71 36.0124 129.586 36.2072C129.464 36.402 129.284 36.5576 129.045 36.6741C128.808 36.7906 128.519 36.8506 128.178 36.854C127.86 36.8572 127.585 36.8088 127.351 36.7086C127.119 36.6084 126.936 36.4673 126.801 36.2852C126.668 36.1032 126.591 35.8909 126.572 35.6485L127.126 35.6429C127.142 35.8103 127.2 35.9483 127.299 36.0571C127.4 36.1644 127.526 36.244 127.679 36.2959C127.832 36.3463 127.997 36.3706 128.173 36.3688C128.378 36.3668 128.562 36.3317 128.725 36.2636C128.887 36.1941 129.015 36.0989 129.109 35.9781C129.203 35.8558 129.25 35.7138 129.248 35.5521C129.247 35.4048 129.204 35.2854 129.121 35.1938C129.038 35.1022 128.929 35.0282 128.794 34.9718C128.659 34.9154 128.513 34.8663 128.357 34.8246L127.809 34.6741C127.462 34.578 127.186 34.4385 126.982 34.2557C126.778 34.073 126.674 33.8321 126.671 33.5332C126.669 33.2848 126.734 33.0675 126.866 32.8813C127 32.6937 127.181 32.5474 127.408 32.4426C127.636 32.3363 127.892 32.2817 128.175 32.2788C128.461 32.2759 128.716 32.3246 128.939 32.4249C129.163 32.5237 129.34 32.6606 129.472 32.8354C129.605 33.0103 129.676 33.2096 129.686 33.4333L129.166 33.4386Z" fill="#232144"/>
<path d="M130.57 40.6H117.17L117.48 43.8H123.88L117.68 46.19L117.98 49.4H126.68L126.4 52.6L123.88 53.39L121.37 52.58L121.11 51H118.13L118.49 54.98L123.88 56.58L129.26 54.98L130.05 46.19H123.9L130.28 43.8L130.57 40.6Z" fill="#232144"/>
<path d="M23.52 48.78H48.25C48.4489 48.78 48.6397 48.859 48.7803 48.9997C48.921 49.1404 49 49.3311 49 49.53V65.89C49 66.4576 48.7746 67.0019 48.3732 67.4032C47.9719 67.8046 47.4276 68.03 46.86 68.03H23.52V48.78Z" fill="#8BD2FC"/>
<path d="M20.63 48.78H46.1V68.04H22.23C21.8038 68.0348 21.3969 67.8618 21.0974 67.5585C20.7979 67.2553 20.63 66.8462 20.63 66.42V48.78Z" fill="white"/>
<path d="M49.0701 59.83V66C49.0701 66.5305 48.8593 67.0392 48.4843 67.4142C48.1092 67.7893 47.6005 68 47.0701 68H46.1801" stroke="#232144" stroke-width="0.97" stroke-linecap="round" stroke-linejoin="round"/>
<path d="M46.2 48.49H47.09C47.6204 48.49 48.1291 48.7007 48.5042 49.0758C48.8792 49.4508 49.09 49.9596 49.09 50.49V57.49" stroke="#232144" stroke-width="0.97" stroke-linecap="round" stroke-linejoin="round"/>
<path d="M26.89 53.15C26.89 52.1338 26.0662 51.31 25.05 51.31C24.0338 51.31 23.21 52.1338 23.21 53.15C23.21 54.1662 24.0338 54.99 25.05 54.99C26.0662 54.99 26.89 54.1662 26.89 53.15Z" fill="#DCF0FF"/>
<path d="M23.4 57.53H40.89" stroke="#232144" stroke-width="0.44" stroke-linecap="round" stroke-linejoin="round"/>
<path d="M23.4 59.1H31.14" stroke="#232144" stroke-width="0.44" stroke-linecap="round" stroke-linejoin="round"/>
<path opacity="0.44" d="M32.3399 67.31H23.0499H21.4399V60.2" stroke="#8BD2FC" stroke-width="1.16" stroke-linecap="round" stroke-linejoin="round"/>
<path d="M20.6299 53.05V49.67C20.6245 49.3657 20.7389 49.0715 20.9484 48.8507C21.1579 48.63 21.4458 48.5004 21.7499 48.49H45.0799C45.3841 48.4926 45.6751 48.6146 45.8902 48.8297C46.1053 49.0448 46.2273 49.3358 46.2299 49.64V52.83" stroke="#232144" stroke-width="0.97" stroke-linecap="round" stroke-linejoin="round"/>
<path d="M46.23 62.16V66.83C46.2274 67.1332 46.105 67.4232 45.8897 67.6367C45.6743 67.8502 45.3833 67.97 45.08 67.97H21.75C21.452 67.9622 21.1686 67.839 20.9596 67.6263C20.7507 67.4136 20.6325 67.1281 20.63 66.83V54.99" stroke="#232144" stroke-width="0.97" stroke-linecap="round" stroke-linejoin="round"/>
<path d="M46.23 55.41V59.2" stroke="#232144" stroke-width="0.97" stroke-linecap="round" stroke-linejoin="round"/>
<path d="M26.89 53.15C26.89 52.1338 26.0662 51.31 25.05 51.31C24.0338 51.31 23.21 52.1338 23.21 53.15C23.21 54.1662 24.0338 54.99 25.05 54.99C26.0662 54.99 26.89 54.1662 26.89 53.15Z" stroke="#232144" stroke-width="0.67" stroke-linecap="round" stroke-linejoin="round"/>
<path d="M56.9 48.78H81.63C81.8289 48.78 82.0197 48.859 82.1604 48.9997C82.301 49.1404 82.38 49.3311 82.38 49.53V65.89C82.38 66.4576 82.1546 67.0019 81.7532 67.4032C81.3519 67.8046 80.8076 68.03 80.24 68.03H56.9V48.78Z" fill="#8BD2FC"/>
<path d="M54 48.78H79.49V68.04H55.63C55.2004 68.04 54.7883 67.8694 54.4845 67.5655C54.1807 67.2617 54.01 66.8497 54.01 66.42V48.78H54Z" fill="white"/>
<path d="M82.46 59.83V66C82.46 66.5305 82.2493 67.0392 81.8742 67.4142C81.4991 67.7893 80.9904 68 80.46 68H79.63" stroke="#232144" stroke-width="0.97" stroke-linecap="round" stroke-linejoin="round"/>
<path d="M79.63 48.49H80.52C81.0504 48.49 81.5591 48.7007 81.9342 49.0758C82.3093 49.4508 82.52 49.9596 82.52 50.49V57.49" stroke="#232144" stroke-width="0.97" stroke-linecap="round" stroke-linejoin="round"/>
<path d="M60.28 53.15C60.28 52.1338 59.4562 51.31 58.44 51.31C57.4238 51.31 56.6 52.1338 56.6 53.15C56.6 54.1662 57.4238 54.99 58.44 54.99C59.4562 54.99 60.28 54.1662 60.28 53.15Z" fill="#DCF0FF"/>
<path d="M56.79 57.53H74.27" stroke="#232144" stroke-width="0.44" stroke-linecap="round" stroke-linejoin="round"/>
<path d="M56.79 59.1H64.53" stroke="#232144" stroke-width="0.44" stroke-linecap="round" stroke-linejoin="round"/>
<path opacity="0.44" d="M65.73 67.31H56.43H54.83V60.2" stroke="#8BD2FC" stroke-width="1.16" stroke-linecap="round" stroke-linejoin="round"/>
<path d="M53.99 53.05V49.67C53.986 49.5165 54.0128 49.3637 54.0688 49.2207C54.1248 49.0777 54.2089 48.9473 54.316 48.8374C54.4232 48.7274 54.5514 48.64 54.6929 48.5803C54.8344 48.5206 54.9864 48.4899 55.14 48.49H78.47C78.624 48.49 78.7765 48.5206 78.9186 48.5802C79.0607 48.6397 79.1894 48.7269 79.2974 48.8368C79.4054 48.9466 79.4904 49.0769 79.5475 49.2199C79.6046 49.363 79.6327 49.516 79.63 49.67V52.86" stroke="#232144" stroke-width="0.97" stroke-linecap="round" stroke-linejoin="round"/>
<path d="M79.63 62.16V66.83C79.6274 67.1332 79.505 67.4232 79.2896 67.6367C79.0743 67.8502 78.7833 67.97 78.48 67.97H55.14C54.9894 67.9713 54.8401 67.9428 54.7007 67.8861C54.5612 67.8294 54.4343 67.7456 54.3274 67.6396C54.2205 67.5337 54.1356 67.4075 54.0777 67.2686C54.0198 67.1296 53.99 66.9805 53.99 66.83V54.99" stroke="#232144" stroke-width="0.97" stroke-linecap="round" stroke-linejoin="round"/>
<path d="M79.62 55.41V59.2" stroke="#232144" stroke-width="0.97" stroke-linecap="round" stroke-linejoin="round"/>
<path d="M60.28 53.15C60.28 52.1338 59.4562 51.31 58.44 51.31C57.4238 51.31 56.6 52.1338 56.6 53.15C56.6 54.1662 57.4238 54.99 58.44 54.99C59.4562 54.99 60.28 54.1662 60.28 53.15Z" stroke="#232144" stroke-width="0.67" stroke-linecap="round" stroke-linejoin="round"/>
<path d="M8.53003 85H22.98" stroke="#000201" stroke-width="0.65" stroke-linecap="round" stroke-linejoin="round"/>
<path d="M25.2 85.69C25.5811 85.69 25.89 85.3811 25.89 85C25.89 84.6189 25.5811 84.31 25.2 84.31C24.8189 84.31 24.51 84.6189 24.51 85C24.51 85.3811 24.8189 85.69 25.2 85.69Z" fill="#000201"/>
<path d="M146.13 82.54H1V87.85H146.13V82.54Z" fill="#F4AD5E"/>
<path d="M146.13 82.54H1V84.82H146.13V82.54Z" fill="#FFC68D"/>
<path d="M146.13 86.28H1V87.42H146.13V86.28Z" fill="#E28C37"/>
<path d="M1.10999 84C13.7305 85.7807 26.4811 86.4699 39.22 86.06C55.38 85.11 66.15 83.36 82.47 83.36C101.64 83.36 120.47 86.06 145.97 86.36" stroke="#FFDCC0" stroke-width="0.67" stroke-miterlimit="10"/>
<path d="M145.63 84.02C120.12 84.34 101.29 87.02 82.12 87.02C75.0909 86.9418 68.075 86.3906 61.12 85.37C41.1664 83.1634 21.0185 83.3918 1.12 86.05" stroke="#FFDCC0" stroke-width="0.67" stroke-miterlimit="10"/>
<path d="M7.76 82.54H146.13V87.86H1V82.54H3.22" stroke="#232144" stroke-width="0.75" stroke-linecap="round" stroke-linejoin="round"/>
</svg>
