<svg width="300" height="300" viewBox="0 0 300 300" fill="none" xmlns="http://www.w3.org/2000/svg">
<rect width="300" height="300" fill="white"/>
<path d="M224.667 256.667H75.3333C66.849 256.658 58.7146 253.284 52.7153 247.285C46.7159 241.285 43.3418 233.151 43.3333 224.667V182C43.3333 179.171 44.4571 176.458 46.4575 174.458C48.4579 172.457 51.171 171.333 54 171.333C56.829 171.333 59.5421 172.457 61.5425 174.458C63.5428 176.458 64.6666 179.171 64.6666 182V224.667C64.6666 227.496 65.7905 230.209 67.7908 232.209C69.7912 234.21 72.5043 235.333 75.3333 235.333H224.667C227.496 235.333 230.209 234.21 232.209 232.209C234.21 230.209 235.333 227.496 235.333 224.667V182C235.333 179.171 236.457 176.458 238.458 174.458C240.458 172.457 243.171 171.333 246 171.333C248.829 171.333 251.542 172.457 253.542 174.458C255.543 176.458 256.667 179.171 256.667 182V224.667C256.658 233.151 253.284 241.285 247.285 247.285C241.285 253.284 233.151 256.658 224.667 256.667Z" fill="#6563FF"/>
<path d="M200.208 131.792C198.208 129.792 195.495 128.669 192.667 128.669C189.838 128.669 187.126 129.792 185.125 131.792L160.667 156.251V54C160.667 51.171 159.543 48.4579 157.542 46.4575C155.542 44.4571 152.829 43.3333 150 43.3333C147.171 43.3333 144.458 44.4571 142.458 46.4575C140.457 48.4579 139.333 51.171 139.333 54V156.251L114.875 131.792C112.863 129.849 110.168 128.774 107.372 128.798C104.575 128.822 101.9 129.944 99.9219 131.922C97.9442 133.9 96.8224 136.575 96.7981 139.372C96.7738 142.168 97.849 144.863 99.792 146.875L142.459 189.541C144.459 191.541 147.172 192.664 150 192.664C152.828 192.664 155.541 191.541 157.541 189.541L200.208 146.875C202.208 144.874 203.331 142.162 203.331 139.333C203.331 136.505 202.208 133.792 200.208 131.792Z" fill="#B2B1FF"/>
</svg>
