<svg width="300" height="300" viewBox="0 0 300 300" fill="none" xmlns="http://www.w3.org/2000/svg">
<rect width="300" height="300" fill="white"/>
<path d="M196.44 211.025L178.091 192.58C181.011 190.643 183.727 188.415 186.2 185.928C190.969 181.16 194.749 175.488 197.323 169.242C199.897 162.995 201.213 156.298 201.196 149.537C201.214 142.775 199.898 136.076 197.324 129.828C194.75 123.581 190.969 117.908 186.2 113.139C184.084 111.014 181.79 109.077 179.343 107.349L197.628 88.9685C199.965 90.8328 202.194 92.8305 204.303 94.9517C211.317 101.984 216.907 110.318 220.761 119.492C224.764 128.999 226.817 139.22 226.796 149.543C226.817 159.865 224.764 170.085 220.761 179.591C216.906 188.763 211.317 197.097 204.303 204.128C201.841 206.604 199.216 208.91 196.447 211.032L196.44 211.025ZM102.935 210.552C100.393 208.56 97.9751 206.412 95.697 204.119C88.6818 197.088 83.0914 188.754 79.236 179.581C75.2352 170.075 73.1836 159.855 73.204 149.534C73.1833 139.211 75.2349 128.99 79.236 119.483C83.0906 110.31 88.6799 101.977 95.6938 94.9452C97.6237 93.0094 99.6532 91.1766 101.774 89.4542L120.014 107.79C117.804 109.403 115.724 111.188 113.793 113.13C109.025 117.899 105.245 123.572 102.671 129.819C100.098 136.067 98.7824 142.765 98.801 149.527C98.7833 156.288 100.099 162.985 102.672 169.232C105.246 175.478 109.026 181.15 113.793 185.918C116.081 188.218 118.577 190.297 121.249 192.13L102.935 210.539V210.552Z" fill="#9C27B0"/>
<path d="M232.847 247.595L214.674 229.327C217.371 227.117 219.955 224.774 222.418 222.305C231.77 212.927 239.223 201.815 244.364 189.584C249.701 176.908 252.439 163.28 252.412 149.516C252.439 135.752 249.701 122.124 244.364 109.448C239.223 97.2176 231.77 86.1063 222.418 76.7303C220.313 74.6137 218.095 72.5678 215.833 70.6539L233.99 52.402C236.23 54.3642 238.428 56.4262 240.518 58.5299C252.204 70.2494 261.517 84.1378 267.939 99.4245C274.611 115.269 278.033 132.304 278 149.509C278.033 166.715 274.611 183.75 267.939 199.594C261.515 214.883 252.199 228.773 240.508 240.492C238.054 242.959 235.478 245.349 232.85 247.598L232.847 247.595ZM66.5575 247.09C64.1415 244.996 61.7575 242.776 59.4919 240.492C47.8013 228.772 38.4845 214.883 32.058 199.594C25.3885 183.749 21.9677 166.714 22.0003 149.509C21.9651 132.305 25.3838 115.27 32.0516 99.4245C38.4781 84.1363 47.7949 70.2469 59.4855 58.5267C61.4055 56.5967 63.4055 54.7084 65.4311 52.9135L83.5785 71.1557C81.5337 72.9088 79.5209 74.781 77.5881 76.7239C68.2353 86.0992 60.7821 97.2107 55.6422 109.442C50.3051 122.117 47.5678 135.745 47.5941 149.509C47.5678 163.274 50.3051 176.902 55.6422 189.577C60.7826 201.809 68.2357 212.921 77.5881 222.298C79.8633 224.585 82.2633 226.782 84.7209 228.831L66.5575 247.09Z" fill="#CE93D8"/>
<path d="M165.641 124.266H134.359C128.859 124.266 124.4 128.725 124.4 134.226V165.774C124.4 171.275 128.859 175.734 134.359 175.734H165.641C171.141 175.734 175.6 171.275 175.6 165.774V134.226C175.6 128.725 171.141 124.266 165.641 124.266Z" fill="#7B1FA2" stroke="black"/>
</svg>
