<svg width="940" height="343" viewBox="0 0 940 343" fill="none" xmlns="http://www.w3.org/2000/svg">
<g clip-path="url(#clip0_202_4)">
<path d="M380.5 267.057H65.5V258.443L223 254.223L380.5 258.443V267.057Z" fill="#004991"/>
<path d="M334.171 78.2617H111.829V234.925H334.171V78.2617Z" fill="#57D7FF"/>
<path d="M337.462 237.243V75.9429H108.538V237.243L65.5 258.443H380.5L337.462 237.243ZM116.867 84.2719H329.133V228.914H116.867V84.2719Z" fill="#0092CC"/>
<path d="M164.843 183.984V119.175H271.13C272.934 125.311 278.608 129.808 285.321 129.808C293.48 129.808 300.119 123.17 300.119 115.01C300.119 106.85 293.481 100.211 285.321 100.211C278.608 100.211 272.934 104.708 271.13 110.845H156.514V183.983C150.377 185.787 145.88 191.461 145.88 198.175C145.88 206.335 152.518 212.974 160.678 212.974C168.838 212.974 175.476 206.336 175.476 198.175C175.477 191.462 170.98 185.788 164.843 183.984ZM285.321 108.541C288.888 108.541 291.79 111.444 291.79 115.011C291.79 118.578 288.889 121.48 285.321 121.48C281.753 121.48 278.852 118.579 278.852 115.011C278.853 111.443 281.754 108.541 285.321 108.541ZM160.679 204.646C157.112 204.646 154.21 201.743 154.21 198.176C154.21 194.609 157.112 191.706 160.679 191.706C164.246 191.706 167.148 194.609 167.148 198.176C167.148 201.743 164.246 204.646 160.679 204.646ZM285.321 183.307C278.582 183.307 272.893 187.839 271.111 194.011H257.964C256.16 187.874 250.486 183.377 243.773 183.377C235.613 183.377 228.975 190.015 228.975 198.176C228.975 206.337 235.613 212.975 243.773 212.975C250.486 212.975 256.16 208.478 257.964 202.341H271.147C272.974 208.442 278.632 212.904 285.32 212.904C293.479 212.904 300.118 206.266 300.118 198.105C300.119 189.946 293.481 183.307 285.321 183.307ZM243.774 204.646C240.207 204.646 237.305 201.743 237.305 198.176C237.305 194.609 240.207 191.706 243.774 191.706C247.341 191.706 250.243 194.609 250.243 198.176C250.243 201.743 247.341 204.646 243.774 204.646ZM285.321 204.575C281.754 204.575 278.852 201.672 278.852 198.105C278.852 194.538 281.753 191.636 285.321 191.636C288.889 191.636 291.79 194.537 291.79 198.105C291.79 201.672 288.889 204.575 285.321 204.575ZM285.321 141.76C278.506 141.76 272.767 146.397 271.056 152.678H198.061V183.984C191.924 185.788 187.427 191.462 187.427 198.176C187.427 206.336 194.065 212.975 202.225 212.975C210.385 212.975 217.023 206.337 217.023 198.176C217.023 191.462 212.526 185.788 206.389 183.984V161.007H271.207C273.1 167 278.709 171.357 285.319 171.357C293.478 171.357 300.117 164.719 300.117 156.558C300.119 148.398 293.481 141.76 285.321 141.76ZM208.696 198.176C208.696 201.743 205.794 204.646 202.227 204.646C198.66 204.646 195.758 201.743 195.758 198.176C195.758 194.609 198.66 191.706 202.227 191.706C205.794 191.706 208.696 194.609 208.696 198.176ZM285.321 163.028C281.754 163.028 278.852 160.125 278.852 156.558C278.852 152.991 281.753 150.089 285.321 150.089C288.889 150.089 291.79 152.99 291.79 156.558C291.79 160.126 288.889 163.028 285.321 163.028Z" fill="white"/>
</g>
<path d="M444.682 183.5V158.57L447.292 165.77L419.932 120.5H432.442L454.402 156.95H447.382L469.522 120.5H481.042L453.682 165.77L456.382 158.57V183.5H444.682ZM476.015 183.5L504.365 120.5H515.885L544.325 183.5H532.085L507.695 126.71H512.375L488.075 183.5H476.015ZM489.065 168.92L492.215 159.74H526.235L529.385 168.92H489.065ZM547.567 183.5V175.67L588.247 125.99L589.597 130.4H548.197V120.5H600.127V128.33L559.447 178.01L558.007 173.6H601.297V183.5H547.567ZM612.015 183.5V120.5H621.645L661.155 169.01H656.385V120.5H667.995V183.5H658.365L618.855 134.99H623.625V183.5H612.015ZM676.416 190.34V183.5H721.416V190.34H676.416ZM734.753 183.5V125L739.883 130.31H721.433V120.5H746.453V183.5H734.753ZM785.23 184.4C780.25 184.4 775.75 183.14 771.73 180.62C767.77 178.1 764.65 174.44 762.37 169.64C760.09 164.78 758.95 158.9 758.95 152C758.95 145.1 760.09 139.25 762.37 134.45C764.65 129.59 767.77 125.9 771.73 123.38C775.75 120.86 780.25 119.6 785.23 119.6C790.27 119.6 794.77 120.86 798.73 123.38C802.69 125.9 805.81 129.59 808.09 134.45C810.43 139.25 811.6 145.1 811.6 152C811.6 158.9 810.43 164.78 808.09 169.64C805.81 174.44 802.69 178.1 798.73 180.62C794.77 183.14 790.27 184.4 785.23 184.4ZM785.23 174.23C788.17 174.23 790.72 173.45 792.88 171.89C795.04 170.27 796.72 167.81 797.92 164.51C799.18 161.21 799.81 157.04 799.81 152C799.81 146.9 799.18 142.73 797.92 139.49C796.72 136.19 795.04 133.76 792.88 132.2C790.72 130.58 788.17 129.77 785.23 129.77C782.41 129.77 779.89 130.58 777.67 132.2C775.51 133.76 773.8 136.19 772.54 139.49C771.34 142.73 770.74 146.9 770.74 152C770.74 157.04 771.34 161.21 772.54 164.51C773.8 167.81 775.51 170.27 777.67 171.89C779.89 173.45 782.41 174.23 785.23 174.23ZM844.797 184.4C839.577 184.4 835.047 183.62 831.207 182.06C827.367 180.5 824.397 178.31 822.297 175.49C820.197 172.61 819.147 169.25 819.147 165.41C819.147 161.57 820.167 158.33 822.207 155.69C824.247 153.05 827.187 151.04 831.027 149.66C834.867 148.28 839.457 147.59 844.797 147.59C850.137 147.59 854.727 148.28 858.567 149.66C862.467 151.04 865.437 153.08 867.477 155.78C869.577 158.42 870.627 161.63 870.627 165.41C870.627 169.25 869.547 172.61 867.387 175.49C865.287 178.31 862.287 180.5 858.387 182.06C854.547 183.62 850.017 184.4 844.797 184.4ZM844.797 175.22C849.117 175.22 852.537 174.32 855.057 172.52C857.577 170.72 858.837 168.23 858.837 165.05C858.837 161.93 857.577 159.47 855.057 157.67C852.537 155.87 849.117 154.97 844.797 154.97C840.477 154.97 837.087 155.87 834.627 157.67C832.167 159.47 830.937 161.93 830.937 165.05C830.937 168.23 832.167 170.72 834.627 172.52C837.087 174.32 840.477 175.22 844.797 175.22ZM844.797 153.71C839.937 153.71 835.767 153.08 832.287 151.82C828.807 150.5 826.107 148.61 824.187 146.15C822.327 143.63 821.397 140.63 821.397 137.15C821.397 133.55 822.357 130.46 824.277 127.88C826.257 125.24 829.017 123.2 832.557 121.76C836.097 120.32 840.177 119.6 844.797 119.6C849.477 119.6 853.587 120.32 857.127 121.76C860.667 123.2 863.427 125.24 865.407 127.88C867.387 130.46 868.377 133.55 868.377 137.15C868.377 140.63 867.417 143.63 865.497 146.15C863.637 148.61 860.937 150.5 857.397 151.82C853.857 153.08 849.657 153.71 844.797 153.71ZM844.797 146.51C848.517 146.51 851.457 145.73 853.617 144.17C855.777 142.55 856.857 140.39 856.857 137.69C856.857 134.87 855.747 132.68 853.527 131.12C851.307 129.56 848.397 128.78 844.797 128.78C841.197 128.78 838.317 129.56 836.157 131.12C833.997 132.68 832.917 134.87 832.917 137.69C832.917 140.39 833.967 142.55 836.067 144.17C838.227 145.73 841.137 146.51 844.797 146.51Z" fill="#004991"/>
<path d="M488.479 220.658C488.479 220.965 488.325 221.118 488.019 221.118H471.735C471.612 221.118 471.551 221.179 471.551 221.302V231.192C471.551 231.315 471.612 231.376 471.735 231.376H482.913C483.219 231.376 483.373 231.529 483.373 231.836V234.734C483.373 235.041 483.219 235.194 482.913 235.194H471.735C471.612 235.194 471.551 235.255 471.551 235.378V249.04C471.551 249.347 471.397 249.5 471.091 249.5H467.595C467.288 249.5 467.135 249.347 467.135 249.04V217.76C467.135 217.453 467.288 217.3 467.595 217.3H488.019C488.325 217.3 488.479 217.453 488.479 217.76V220.658ZM528.058 249.5C527.813 249.5 527.644 249.393 527.552 249.178L521.112 235.424C521.082 235.332 521.02 235.286 520.928 235.286H514.304C514.182 235.286 514.12 235.347 514.12 235.47V249.04C514.12 249.347 513.967 249.5 513.66 249.5H510.164C509.858 249.5 509.704 249.347 509.704 249.04V217.76C509.704 217.453 509.858 217.3 510.164 217.3H522.538C524.378 217.3 525.988 217.683 527.368 218.45C528.779 219.217 529.868 220.29 530.634 221.67C531.401 223.05 531.784 224.645 531.784 226.454C531.784 228.601 531.217 230.425 530.082 231.928C528.978 233.4 527.43 234.397 525.436 234.918C525.314 234.979 525.283 235.056 525.344 235.148L532.014 248.948C532.045 249.009 532.06 249.086 532.06 249.178C532.06 249.393 531.938 249.5 531.692 249.5H528.058ZM514.304 221.118C514.182 221.118 514.12 221.179 514.12 221.302V231.606C514.12 231.729 514.182 231.79 514.304 231.79H521.986C523.612 231.79 524.915 231.315 525.896 230.364C526.878 229.383 527.368 228.095 527.368 226.5C527.368 224.875 526.878 223.571 525.896 222.59C524.915 221.609 523.612 221.118 521.986 221.118H514.304ZM564.963 249.914C562.725 249.914 560.747 249.454 559.029 248.534C557.312 247.614 555.978 246.326 555.027 244.67C554.077 242.983 553.601 241.051 553.601 238.874V227.926C553.601 225.749 554.077 223.832 555.027 222.176C555.978 220.52 557.312 219.232 559.029 218.312C560.747 217.392 562.725 216.932 564.963 216.932C567.233 216.932 569.226 217.392 570.943 218.312C572.661 219.232 573.995 220.52 574.945 222.176C575.896 223.832 576.371 225.749 576.371 227.926V238.874C576.371 241.051 575.896 242.983 574.945 244.67C573.995 246.326 572.661 247.614 570.943 248.534C569.226 249.454 567.233 249.914 564.963 249.914ZM564.963 246.096C567.049 246.096 568.735 245.452 570.023 244.164C571.311 242.876 571.955 241.174 571.955 239.058V227.88C571.955 225.733 571.311 224.016 570.023 222.728C568.735 221.409 567.049 220.75 564.963 220.75C562.878 220.75 561.191 221.409 559.903 222.728C558.646 224.016 558.017 225.733 558.017 227.88V239.058C558.017 241.174 558.646 242.876 559.903 244.164C561.191 245.452 562.878 246.096 564.963 246.096ZM618.602 217.76C618.602 217.453 618.756 217.3 619.062 217.3H622.558C622.865 217.3 623.018 217.453 623.018 217.76V249.04C623.018 249.347 622.865 249.5 622.558 249.5H619.2C618.986 249.5 618.802 249.393 618.648 249.178L604.25 225.672C604.22 225.58 604.174 225.549 604.112 225.58C604.051 225.58 604.02 225.626 604.02 225.718L604.066 249.04C604.066 249.347 603.913 249.5 603.606 249.5H600.11C599.804 249.5 599.65 249.347 599.65 249.04V217.76C599.65 217.453 599.804 217.3 600.11 217.3H603.514C603.729 217.3 603.913 217.407 604.066 217.622L618.418 241.128C618.449 241.22 618.495 241.266 618.556 241.266C618.618 241.235 618.648 241.174 618.648 241.082L618.602 217.76ZM667.632 217.3C667.938 217.3 668.092 217.453 668.092 217.76V220.704C668.092 221.011 667.938 221.164 667.632 221.164H658.8C658.677 221.164 658.616 221.225 658.616 221.348V249.04C658.616 249.347 658.462 249.5 658.156 249.5H654.66C654.353 249.5 654.2 249.347 654.2 249.04V221.348C654.2 221.225 654.138 221.164 654.016 221.164H645.598C645.291 221.164 645.138 221.011 645.138 220.704V217.76C645.138 217.453 645.291 217.3 645.598 217.3H667.632ZM737.295 220.658C737.295 220.965 737.141 221.118 736.835 221.118H720.505C720.382 221.118 720.321 221.179 720.321 221.302V231.192C720.321 231.315 720.382 231.376 720.505 231.376H731.729C732.035 231.376 732.189 231.529 732.189 231.836V234.734C732.189 235.041 732.035 235.194 731.729 235.194H720.505C720.382 235.194 720.321 235.255 720.321 235.378V245.498C720.321 245.621 720.382 245.682 720.505 245.682H736.835C737.141 245.682 737.295 245.835 737.295 246.142V249.04C737.295 249.347 737.141 249.5 736.835 249.5H716.365C716.058 249.5 715.905 249.347 715.905 249.04V217.76C715.905 217.453 716.058 217.3 716.365 217.3H736.835C737.141 217.3 737.295 217.453 737.295 217.76V220.658ZM778.909 217.76C778.909 217.453 779.062 217.3 779.369 217.3H782.865C783.172 217.3 783.325 217.453 783.325 217.76V249.04C783.325 249.347 783.172 249.5 782.865 249.5H779.507C779.292 249.5 779.108 249.393 778.955 249.178L764.557 225.672C764.526 225.58 764.48 225.549 764.419 225.58C764.358 225.58 764.327 225.626 764.327 225.718L764.373 249.04C764.373 249.347 764.22 249.5 763.913 249.5H760.417C760.11 249.5 759.957 249.347 759.957 249.04V217.76C759.957 217.453 760.11 217.3 760.417 217.3H763.821C764.036 217.3 764.22 217.407 764.373 217.622L778.725 241.128C778.756 241.22 778.802 241.266 778.863 241.266C778.924 241.235 778.955 241.174 778.955 241.082L778.909 217.76ZM807.434 249.5C807.127 249.5 806.974 249.347 806.974 249.04V217.76C806.974 217.453 807.127 217.3 807.434 217.3H818.566C821.755 217.3 824.301 218.143 826.202 219.83C828.103 221.486 829.054 223.709 829.054 226.5V240.3C829.054 243.091 828.103 245.329 826.202 247.016C824.301 248.672 821.755 249.5 818.566 249.5H807.434ZM811.39 245.498C811.39 245.621 811.451 245.682 811.574 245.682H818.75C820.529 245.682 821.939 245.145 822.982 244.072C824.055 242.968 824.607 241.496 824.638 239.656V227.144C824.638 225.304 824.101 223.847 823.028 222.774C821.985 221.67 820.559 221.118 818.75 221.118H811.574C811.451 221.118 811.39 221.179 811.39 221.302V245.498Z" fill="#004991"/>
<defs>
<clipPath id="clip0_202_4">
<rect width="315" height="191.114" fill="white" transform="translate(65.5 75.9429)"/>
</clipPath>
</defs>
</svg>
