<svg width="399" height="385" viewBox="0 0 399 385" fill="none" xmlns="http://www.w3.org/2000/svg">
<g clip-path="url(#clip0_206_45)">
<path d="M358.5 191.114H43.5V182.5L201 178.28L358.5 182.5V191.114Z" fill="#004991"/>
<path d="M312.171 2.31885H89.8291V158.982H312.171V2.31885Z" fill="#57D7FF"/>
<path d="M315.462 161.3V0H86.538V161.3L43.5 182.5H358.5L315.462 161.3ZM94.867 8.329H307.133V152.971H94.867V8.329Z" fill="#0092CC"/>
<path d="M142.843 108.041V43.2321H249.13C250.934 49.3681 256.608 53.8651 263.321 53.8651C271.48 53.8651 278.119 47.2271 278.119 39.0671C278.119 30.9071 271.481 24.2681 263.321 24.2681C256.608 24.2681 250.934 28.7651 249.13 34.9021H134.514V108.04C128.377 109.844 123.88 115.518 123.88 122.232C123.88 130.392 130.518 137.031 138.678 137.031C146.838 137.031 153.476 130.393 153.476 122.232C153.477 115.519 148.98 109.845 142.843 108.041ZM263.321 32.5981C266.888 32.5981 269.79 35.5011 269.79 39.0681C269.79 42.6351 266.889 45.5371 263.321 45.5371C259.753 45.5371 256.852 42.6361 256.852 39.0681C256.853 35.5001 259.754 32.5981 263.321 32.5981ZM138.679 128.703C135.112 128.703 132.21 125.8 132.21 122.233C132.21 118.666 135.112 115.763 138.679 115.763C142.246 115.763 145.148 118.666 145.148 122.233C145.148 125.8 142.246 128.703 138.679 128.703ZM263.321 107.364C256.582 107.364 250.893 111.896 249.111 118.068H235.964C234.16 111.931 228.486 107.434 221.773 107.434C213.613 107.434 206.975 114.072 206.975 122.233C206.975 130.394 213.613 137.032 221.773 137.032C228.486 137.032 234.16 132.535 235.964 126.398H249.147C250.974 132.499 256.632 136.961 263.32 136.961C271.479 136.961 278.118 130.323 278.118 122.162C278.119 114.003 271.481 107.364 263.321 107.364ZM221.774 128.703C218.207 128.703 215.305 125.8 215.305 122.233C215.305 118.666 218.207 115.763 221.774 115.763C225.341 115.763 228.243 118.666 228.243 122.233C228.243 125.8 225.341 128.703 221.774 128.703ZM263.321 128.632C259.754 128.632 256.852 125.729 256.852 122.162C256.852 118.595 259.753 115.693 263.321 115.693C266.889 115.693 269.79 118.594 269.79 122.162C269.79 125.729 266.889 128.632 263.321 128.632ZM263.321 65.8171C256.506 65.8171 250.767 70.4541 249.056 76.7351H176.061V108.041C169.924 109.845 165.427 115.519 165.427 122.233C165.427 130.393 172.065 137.032 180.225 137.032C188.385 137.032 195.023 130.394 195.023 122.233C195.023 115.519 190.526 109.845 184.389 108.041V85.0641H249.207C251.1 91.0571 256.709 95.4141 263.319 95.4141C271.478 95.4141 278.117 88.7761 278.117 80.6151C278.119 72.4551 271.481 65.8171 263.321 65.8171ZM186.696 122.233C186.696 125.8 183.794 128.703 180.227 128.703C176.66 128.703 173.758 125.8 173.758 122.233C173.758 118.666 176.66 115.763 180.227 115.763C183.794 115.763 186.696 118.666 186.696 122.233ZM263.321 87.0851C259.754 87.0851 256.852 84.1821 256.852 80.6151C256.852 77.0481 259.753 74.1461 263.321 74.1461C266.889 74.1461 269.79 77.0471 269.79 80.6151C269.79 84.1831 266.889 87.0851 263.321 87.0851Z" fill="white"/>
</g>
<path d="M28.894 307.114V282.994L13.144 259.414C12.064 257.734 10.864 256.204 9.54398 254.824C8.28398 253.384 6.93398 252.184 5.49398 251.224C4.05398 250.204 2.46398 249.634 0.723984 249.514V247.714H9.90398C12.124 247.714 14.104 248.224 15.844 249.244C17.644 250.204 19.204 251.434 20.524 252.934C21.904 254.434 23.074 255.994 24.034 257.614L36.634 276.784L54.634 247.714H59.764L39.064 281.374V307.114H28.894ZM109.244 307.474C107.504 307.474 105.584 307.234 103.484 306.754C101.444 306.214 99.4343 305.134 97.4543 303.514C95.5343 301.834 93.8843 299.254 92.5043 295.774L90.3443 290.464H65.8643L58.5743 307.114H54.1643L80.1743 247.714H83.5943L103.664 295.774C104.864 298.714 106.184 300.934 107.624 302.434C109.124 303.874 110.984 304.714 113.204 304.954V307.024C112.724 307.144 112.094 307.234 111.314 307.294C110.594 307.414 109.904 307.474 109.244 307.474ZM67.5743 286.594H88.5443L78.2843 262.024L67.5743 286.594ZM113.168 307.114V304.684L148.268 251.494H127.838C124.478 251.494 121.838 252.334 119.918 254.014C118.058 255.634 117.128 258.364 117.128 262.204H114.788V254.914C114.788 253.714 114.998 252.574 115.418 251.494C115.838 250.354 116.588 249.454 117.668 248.794C118.808 248.074 120.398 247.714 122.438 247.714H162.668L126.218 303.244H161.858V307.114H113.168ZM216.012 307.654L177.672 261.484V307.114H173.532V258.514C173.532 256.054 172.962 254.044 171.822 252.484C170.742 250.864 168.612 250.054 165.432 250.054H164.802V247.714H170.922C174.162 247.714 176.772 248.194 178.752 249.154C180.792 250.054 182.502 251.374 183.882 253.114L215.112 290.374V247.714H219.252V307.654H216.012ZM227.303 313.054V307.114H264.383V313.054H227.303ZM276.406 307.114V257.704L268.216 262.924L266.236 260.494L280.186 247.714H286.666V307.114H276.406ZM320.633 308.914C315.173 308.914 310.763 307.594 307.403 304.954C304.043 302.314 301.643 298.624 300.203 293.884C298.763 289.144 298.043 283.654 298.043 277.414C298.043 271.114 298.763 265.624 300.203 260.944C301.643 256.204 304.043 252.514 307.403 249.874C310.763 247.234 315.173 245.914 320.633 245.914C326.213 245.914 330.653 247.234 333.953 249.874C337.313 252.514 339.713 256.204 341.153 260.944C342.593 265.624 343.313 271.114 343.313 277.414C343.313 283.654 342.593 289.144 341.153 293.884C339.713 298.624 337.313 302.314 333.953 304.954C330.653 307.594 326.213 308.914 320.633 308.914ZM320.633 305.044C324.893 305.044 327.893 302.824 329.633 298.384C331.373 293.884 332.243 286.894 332.243 277.414C332.243 267.934 331.373 260.974 329.633 256.534C327.893 252.034 324.893 249.784 320.633 249.784C316.433 249.784 313.463 252.034 311.723 256.534C309.983 260.974 309.113 267.934 309.113 277.414C309.113 286.894 309.983 293.884 311.723 298.384C313.463 302.824 316.433 305.044 320.633 305.044ZM373.074 308.914C369.174 308.914 365.544 308.374 362.184 307.294C358.884 306.274 356.244 304.624 354.264 302.344C352.284 300.064 351.294 297.124 351.294 293.524C351.294 290.584 351.984 288.094 353.364 286.054C354.804 283.954 356.664 282.184 358.944 280.744C361.224 279.304 363.594 278.044 366.054 276.964C363.834 275.644 361.764 274.294 359.844 272.914C357.984 271.534 356.454 269.914 355.254 268.054C354.114 266.194 353.544 263.944 353.544 261.304C353.544 257.404 354.444 254.344 356.244 252.124C358.044 249.844 360.414 248.254 363.354 247.354C366.354 246.394 369.594 245.914 373.074 245.914C376.614 245.914 379.854 246.364 382.794 247.264C385.794 248.164 388.164 249.664 389.904 251.764C391.704 253.864 392.604 256.744 392.604 260.404C392.604 262.744 392.064 264.844 390.984 266.704C389.904 268.504 388.464 270.094 386.664 271.474C384.924 272.854 382.974 274.024 380.814 274.984C383.214 276.304 385.464 277.774 387.564 279.394C389.724 280.954 391.464 282.784 392.784 284.884C394.164 286.984 394.854 289.564 394.854 292.624C394.854 296.524 393.864 299.674 391.884 302.074C389.964 304.474 387.354 306.214 384.054 307.294C380.754 308.374 377.094 308.914 373.074 308.914ZM373.074 305.044C375.114 305.044 376.974 304.654 378.654 303.874C380.334 303.094 381.654 301.924 382.614 300.364C383.634 298.744 384.144 296.764 384.144 294.424C384.144 291.904 383.514 289.744 382.254 287.944C380.994 286.084 379.344 284.434 377.304 282.994C375.264 281.554 373.014 280.204 370.554 278.944C368.934 279.784 367.464 280.804 366.144 282.004C364.884 283.204 363.864 284.734 363.084 286.594C362.364 288.394 362.004 290.704 362.004 293.524C362.004 296.164 362.484 298.354 363.444 300.094C364.464 301.774 365.814 303.034 367.494 303.874C369.174 304.654 371.034 305.044 373.074 305.044ZM376.404 272.734C378.024 271.474 379.344 269.944 380.364 268.144C381.384 266.344 381.894 263.764 381.894 260.404C381.894 257.584 381.414 255.424 380.454 253.924C379.554 252.364 378.414 251.284 377.034 250.684C375.714 250.084 374.394 249.784 373.074 249.784C371.814 249.784 370.494 250.084 369.114 250.684C367.734 251.224 366.564 252.214 365.604 253.654C364.704 255.034 364.254 256.984 364.254 259.504C364.254 261.424 364.794 263.194 365.874 264.814C367.014 266.374 368.514 267.844 370.374 269.224C372.294 270.544 374.304 271.714 376.404 272.734Z" fill="#004991"/>
<path d="M41.7989 354.306C41.7989 354.612 41.6455 354.766 41.3389 354.766H24.4569C24.3342 354.766 24.2729 354.827 24.2729 354.95V366.312C24.2729 366.434 24.3342 366.496 24.4569 366.496H36.2789C36.5855 366.496 36.7389 366.649 36.7389 366.956V368.888C36.7389 369.194 36.5855 369.348 36.2789 369.348H24.4569C24.3342 369.348 24.2729 369.409 24.2729 369.532V383.654C24.2729 383.96 24.1195 384.114 23.8129 384.114H21.4669C21.1602 384.114 21.0069 383.96 21.0069 383.654V352.374C21.0069 352.067 21.1602 351.914 21.4669 351.914H41.3389C41.6455 351.914 41.7989 352.067 41.7989 352.374V354.306ZM82.4794 384.114C82.2034 384.114 82.0194 384.006 81.9274 383.792L75.1654 369.532C75.1347 369.44 75.0734 369.394 74.9814 369.394H67.1614C67.0387 369.394 66.9774 369.455 66.9774 369.578V383.654C66.9774 383.96 66.8241 384.114 66.5174 384.114H64.1714C63.8647 384.114 63.7114 383.96 63.7114 383.654V352.374C63.7114 352.067 63.8647 351.914 64.1714 351.914H76.0854C78.7227 351.914 80.8541 352.742 82.4794 354.398C84.1047 356.023 84.9174 358.154 84.9174 360.792C84.9174 362.938 84.3347 364.763 83.1694 366.266C82.0041 367.768 80.4247 368.734 78.4314 369.164C78.3087 369.225 78.2781 369.302 78.3394 369.394L85.2394 383.562C85.2701 383.623 85.2854 383.7 85.2854 383.792C85.2854 384.006 85.1627 384.114 84.9174 384.114H82.4794ZM67.1614 354.766C67.0387 354.766 66.9774 354.827 66.9774 354.95V366.588C66.9774 366.71 67.0387 366.772 67.1614 366.772H75.7174C77.4961 366.772 78.9374 366.22 80.0414 365.116C81.1454 364.012 81.6974 362.57 81.6974 360.792C81.6974 359.013 81.1454 357.572 80.0414 356.468C78.9374 355.333 77.4961 354.766 75.7174 354.766H67.1614ZM118.373 384.482C116.196 384.482 114.279 384.037 112.623 383.148C110.967 382.258 109.679 381.016 108.759 379.422C107.87 377.796 107.425 375.926 107.425 373.81V362.218C107.425 360.102 107.87 358.246 108.759 356.652C109.679 355.026 110.967 353.769 112.623 352.88C114.279 351.99 116.196 351.546 118.373 351.546C120.551 351.546 122.467 351.99 124.123 352.88C125.81 353.769 127.098 355.026 127.987 356.652C128.907 358.246 129.367 360.102 129.367 362.218V373.81C129.367 375.926 128.907 377.796 127.987 379.422C127.098 381.016 125.81 382.258 124.123 383.148C122.467 384.037 120.551 384.482 118.373 384.482ZM118.373 381.676C120.704 381.676 122.575 380.97 123.985 379.56C125.396 378.149 126.101 376.278 126.101 373.948V362.172C126.101 359.841 125.396 357.97 123.985 356.56C122.575 355.118 120.704 354.398 118.373 354.398C116.073 354.398 114.218 355.118 112.807 356.56C111.397 357.97 110.691 359.841 110.691 362.172V373.948C110.691 376.278 111.397 378.149 112.807 379.56C114.218 380.97 116.073 381.676 118.373 381.676ZM172.795 352.374C172.795 352.067 172.948 351.914 173.255 351.914H175.601C175.907 351.914 176.061 352.067 176.061 352.374V383.654C176.061 383.96 175.907 384.114 175.601 384.114H173.301C173.086 384.114 172.902 384.006 172.749 383.792L157.063 358.262C157.032 358.17 156.986 358.139 156.925 358.17C156.863 358.17 156.833 358.216 156.833 358.308L156.879 383.654C156.879 383.96 156.725 384.114 156.419 384.114H154.073C153.766 384.114 153.613 383.96 153.613 383.654V352.374C153.613 352.067 153.766 351.914 154.073 351.914H156.373C156.587 351.914 156.771 352.021 156.925 352.236L172.611 377.766C172.641 377.858 172.687 377.904 172.749 377.904C172.81 377.873 172.841 377.812 172.841 377.72L172.795 352.374ZM220.671 351.914C220.977 351.914 221.131 352.067 221.131 352.374V354.352C221.131 354.658 220.977 354.812 220.671 354.812H211.655C211.532 354.812 211.471 354.873 211.471 354.996V383.654C211.471 383.96 211.317 384.114 211.011 384.114H208.665C208.358 384.114 208.205 383.96 208.205 383.654V354.996C208.205 354.873 208.143 354.812 208.021 354.812H199.373C199.066 354.812 198.913 354.658 198.913 354.352V352.374C198.913 352.067 199.066 351.914 199.373 351.914H220.671ZM290.615 354.306C290.615 354.612 290.462 354.766 290.155 354.766H273.227C273.104 354.766 273.043 354.827 273.043 354.95V366.312C273.043 366.434 273.104 366.496 273.227 366.496H285.095C285.402 366.496 285.555 366.649 285.555 366.956V368.888C285.555 369.194 285.402 369.348 285.095 369.348H273.227C273.104 369.348 273.043 369.409 273.043 369.532V381.078C273.043 381.2 273.104 381.262 273.227 381.262H290.155C290.462 381.262 290.615 381.415 290.615 381.722V383.654C290.615 383.96 290.462 384.114 290.155 384.114H270.237C269.93 384.114 269.777 383.96 269.777 383.654V352.374C269.777 352.067 269.93 351.914 270.237 351.914H290.155C290.462 351.914 290.615 352.067 290.615 352.374V354.306ZM333.371 352.374C333.371 352.067 333.524 351.914 333.831 351.914H336.177C336.483 351.914 336.637 352.067 336.637 352.374V383.654C336.637 383.96 336.483 384.114 336.177 384.114H333.877C333.662 384.114 333.478 384.006 333.325 383.792L317.639 358.262C317.608 358.17 317.562 358.139 317.501 358.17C317.439 358.17 317.409 358.216 317.409 358.308L317.455 383.654C317.455 383.96 317.301 384.114 316.995 384.114H314.649C314.342 384.114 314.189 383.96 314.189 383.654V352.374C314.189 352.067 314.342 351.914 314.649 351.914H316.949C317.163 351.914 317.347 352.021 317.501 352.236L333.187 377.766C333.217 377.858 333.263 377.904 333.325 377.904C333.386 377.873 333.417 377.812 333.417 377.72L333.371 352.374ZM361.666 384.114C361.359 384.114 361.206 383.96 361.206 383.654V352.374C361.206 352.067 361.359 351.914 361.666 351.914H372.522C375.558 351.914 377.965 352.711 379.744 354.306C381.553 355.9 382.458 358.062 382.458 360.792V375.236C382.458 377.965 381.553 380.127 379.744 381.722C377.965 383.316 375.558 384.114 372.522 384.114H361.666ZM364.472 381.078C364.472 381.2 364.533 381.262 364.656 381.262H372.66C374.653 381.262 376.232 380.679 377.398 379.514C378.594 378.348 379.192 376.784 379.192 374.822V361.252C379.192 359.258 378.609 357.679 377.444 356.514C376.278 355.348 374.684 354.766 372.66 354.766H364.656C364.533 354.766 364.472 354.827 364.472 354.95V381.078Z" fill="#004991"/>
<defs>
<clipPath id="clip0_206_45">
<rect width="315" height="191.114" fill="white" transform="translate(43.5)"/>
</clipPath>
</defs>
</svg>
