<svg width="455" height="382" viewBox="0 0 455 382" fill="none" xmlns="http://www.w3.org/2000/svg">
<mask id="mask0_1_34" style="mask-type:luminance" maskUnits="userSpaceOnUse" x="70" y="0" width="316" height="192">
<path d="M385.5 0.442993H70.5V191.557H385.5V0.442993Z" fill="white"/>
</mask>
<g mask="url(#mask0_1_34)">
<path d="M385.5 191.557H70.5V182.943L228 178.723L385.5 182.943V191.557Z" fill="#004991"/>
<path d="M339.171 2.76196H116.829V159.425H339.171V2.76196Z" fill="#57D7FF"/>
<path d="M342.462 161.743V0.442993H113.538V161.743L70.5 182.943H385.5L342.462 161.743ZM121.867 8.77199H334.133V153.414H121.867V8.77199Z" fill="#0092CC"/>
<path d="M169.843 108.484V43.6749H276.13C277.934 49.8109 283.608 54.3079 290.321 54.3079C298.48 54.3079 305.119 47.6699 305.119 39.5099C305.119 31.3499 298.481 24.7109 290.321 24.7109C283.608 24.7109 277.934 29.2079 276.13 35.3449H161.514V108.483C155.377 110.287 150.88 115.961 150.88 122.675C150.88 130.835 157.518 137.474 165.678 137.474C173.838 137.474 180.476 130.836 180.476 122.675C180.477 115.962 175.98 110.288 169.843 108.484ZM290.321 33.0409C293.888 33.0409 296.79 35.9439 296.79 39.5109C296.79 43.0779 293.889 45.9799 290.321 45.9799C286.753 45.9799 283.852 43.0789 283.852 39.5109C283.853 35.9429 286.754 33.0409 290.321 33.0409ZM165.679 129.146C162.112 129.146 159.21 126.243 159.21 122.676C159.21 119.109 162.112 116.206 165.679 116.206C169.246 116.206 172.148 119.109 172.148 122.676C172.148 126.243 169.246 129.146 165.679 129.146ZM290.321 107.807C283.582 107.807 277.893 112.339 276.111 118.511H262.964C261.16 112.374 255.486 107.877 248.773 107.877C240.613 107.877 233.975 114.515 233.975 122.676C233.975 130.837 240.613 137.475 248.773 137.475C255.486 137.475 261.16 132.978 262.964 126.841H276.147C277.974 132.942 283.632 137.404 290.32 137.404C298.479 137.404 305.118 130.766 305.118 122.605C305.119 114.446 298.481 107.807 290.321 107.807ZM248.774 129.146C245.207 129.146 242.305 126.243 242.305 122.676C242.305 119.109 245.207 116.206 248.774 116.206C252.341 116.206 255.243 119.109 255.243 122.676C255.243 126.243 252.341 129.146 248.774 129.146ZM290.321 129.075C286.754 129.075 283.852 126.172 283.852 122.605C283.852 119.038 286.753 116.136 290.321 116.136C293.889 116.136 296.79 119.037 296.79 122.605C296.79 126.172 293.889 129.075 290.321 129.075ZM290.321 66.2599C283.506 66.2599 277.767 70.8969 276.056 77.1779H203.061V108.484C196.924 110.288 192.427 115.962 192.427 122.676C192.427 130.836 199.065 137.475 207.225 137.475C215.385 137.475 222.023 130.837 222.023 122.676C222.023 115.962 217.526 110.288 211.389 108.484V85.5069H276.207C278.1 91.4999 283.709 95.8569 290.319 95.8569C298.478 95.8569 305.117 89.2189 305.117 81.0579C305.119 72.8979 298.481 66.2599 290.321 66.2599ZM213.696 122.676C213.696 126.243 210.794 129.146 207.227 129.146C203.66 129.146 200.758 126.243 200.758 122.676C200.758 119.109 203.66 116.206 207.227 116.206C210.794 116.206 213.696 119.109 213.696 122.676ZM290.321 87.5279C286.754 87.5279 283.852 84.6249 283.852 81.0579C283.852 77.4909 286.753 74.5889 290.321 74.5889C293.889 74.5889 296.79 77.4899 296.79 81.0579C296.79 84.6259 293.889 87.5279 290.321 87.5279Z" fill="white"/>
</g>
<path d="M25.1822 318.557V293.627L27.7922 300.827L0.43219 255.557H12.9422L34.9022 292.007H27.8822L50.0222 255.557H61.5422L34.1822 300.827L36.8822 293.627V318.557H25.1822ZM56.5148 318.557L84.8648 255.557H96.3848L124.825 318.557H112.585L88.1948 261.767H92.8748L68.5748 318.557H56.5148ZM69.5648 303.977L72.7148 294.797H106.735L109.885 303.977H69.5648ZM128.067 318.557V310.727L168.747 261.047L170.097 265.457H128.697V255.557H180.627V263.387L139.947 313.067L138.507 308.657H181.797V318.557H128.067ZM192.515 318.557V255.557H202.145L241.655 304.067H236.885V255.557H248.495V318.557H238.865L199.355 270.047H204.125V318.557H192.515ZM256.916 325.397V318.557H301.916V325.397H256.916ZM315.253 318.557V260.057L320.383 265.367H301.933V255.557H326.953V318.557H315.253ZM365.73 319.457C360.75 319.457 356.25 318.197 352.23 315.677C348.27 313.157 345.15 309.497 342.87 304.697C340.59 299.837 339.45 293.957 339.45 287.057C339.45 280.157 340.59 274.307 342.87 269.507C345.15 264.647 348.27 260.957 352.23 258.437C356.25 255.917 360.75 254.657 365.73 254.657C370.77 254.657 375.27 255.917 379.23 258.437C383.19 260.957 386.31 264.647 388.59 269.507C390.93 274.307 392.1 280.157 392.1 287.057C392.1 293.957 390.93 299.837 388.59 304.697C386.31 309.497 383.19 313.157 379.23 315.677C375.27 318.197 370.77 319.457 365.73 319.457ZM365.73 309.287C368.67 309.287 371.22 308.507 373.38 306.947C375.54 305.327 377.22 302.867 378.42 299.567C379.68 296.267 380.31 292.097 380.31 287.057C380.31 281.957 379.68 277.787 378.42 274.547C377.22 271.247 375.54 268.817 373.38 267.257C371.22 265.637 368.67 264.827 365.73 264.827C362.91 264.827 360.39 265.637 358.17 267.257C356.01 268.817 354.3 271.247 353.04 274.547C351.84 277.787 351.24 281.957 351.24 287.057C351.24 292.097 351.84 296.267 353.04 299.567C354.3 302.867 356.01 305.327 358.17 306.947C360.39 308.507 362.91 309.287 365.73 309.287ZM425.297 319.457C420.077 319.457 415.547 318.677 411.707 317.117C407.867 315.557 404.897 313.367 402.797 310.547C400.697 307.667 399.647 304.307 399.647 300.467C399.647 296.627 400.667 293.387 402.707 290.747C404.747 288.107 407.687 286.097 411.527 284.717C415.367 283.337 419.957 282.647 425.297 282.647C430.637 282.647 435.227 283.337 439.067 284.717C442.967 286.097 445.937 288.137 447.977 290.837C450.077 293.477 451.127 296.687 451.127 300.467C451.127 304.307 450.047 307.667 447.887 310.547C445.787 313.367 442.787 315.557 438.887 317.117C435.047 318.677 430.517 319.457 425.297 319.457ZM425.297 310.277C429.617 310.277 433.037 309.377 435.557 307.577C438.077 305.777 439.337 303.287 439.337 300.107C439.337 296.987 438.077 294.527 435.557 292.727C433.037 290.927 429.617 290.027 425.297 290.027C420.977 290.027 417.587 290.927 415.127 292.727C412.667 294.527 411.437 296.987 411.437 300.107C411.437 303.287 412.667 305.777 415.127 307.577C417.587 309.377 420.977 310.277 425.297 310.277ZM425.297 288.767C420.437 288.767 416.267 288.137 412.787 286.877C409.307 285.557 406.607 283.667 404.687 281.207C402.827 278.687 401.897 275.687 401.897 272.207C401.897 268.607 402.857 265.517 404.777 262.937C406.757 260.297 409.517 258.257 413.057 256.817C416.597 255.377 420.677 254.657 425.297 254.657C429.977 254.657 434.087 255.377 437.627 256.817C441.167 258.257 443.927 260.297 445.907 262.937C447.887 265.517 448.877 268.607 448.877 272.207C448.877 275.687 447.917 278.687 445.997 281.207C444.137 283.667 441.437 285.557 437.897 286.877C434.357 288.137 430.157 288.767 425.297 288.767ZM425.297 281.567C429.017 281.567 431.957 280.787 434.117 279.227C436.277 277.607 437.357 275.447 437.357 272.747C437.357 269.927 436.247 267.737 434.027 266.177C431.807 264.617 428.897 263.837 425.297 263.837C421.697 263.837 418.817 264.617 416.657 266.177C414.497 267.737 413.417 269.927 413.417 272.747C413.417 275.447 414.467 277.607 416.567 279.227C418.727 280.787 421.637 281.567 425.297 281.567Z" fill="#004991"/>
<path d="M82.7401 380.557C82.5481 380.557 82.4161 380.461 82.3441 380.269L75.4321 355.753L75.3961 355.645C75.3961 355.453 75.5161 355.357 75.7561 355.357H77.6641C77.8801 355.357 78.0121 355.453 78.0601 355.645L83.5321 375.373C83.5561 375.421 83.5801 375.445 83.6041 375.445C83.6521 375.445 83.6881 375.421 83.7121 375.373L88.7881 355.681C88.8361 355.465 88.9681 355.357 89.1841 355.357H91.1281C91.3441 355.357 91.4761 355.465 91.5241 355.681L96.8161 375.373C96.8401 375.421 96.8641 375.445 96.8881 375.445C96.9361 375.445 96.9721 375.421 96.9961 375.373L102.468 355.645C102.516 355.453 102.648 355.357 102.864 355.357H104.7C104.82 355.357 104.904 355.393 104.952 355.465C105.024 355.537 105.048 355.633 105.024 355.753L98.2201 380.269C98.1721 380.461 98.0401 380.557 97.8241 380.557H95.9161C95.7001 380.557 95.5681 380.449 95.5201 380.233L90.2641 360.073C90.2401 360.025 90.2041 360.001 90.1561 360.001C90.1321 360.001 90.1081 360.025 90.0841 360.073L84.9361 380.233C84.9121 380.449 84.7801 380.557 84.5401 380.557H82.7401ZM138.189 357.229C138.189 357.469 138.069 357.589 137.829 357.589H124.581C124.485 357.589 124.437 357.637 124.437 357.733V366.625C124.437 366.721 124.485 366.769 124.581 366.769H133.869C134.109 366.769 134.229 366.889 134.229 367.129V368.641C134.229 368.881 134.109 369.001 133.869 369.001H124.581C124.485 369.001 124.437 369.049 124.437 369.145V378.181C124.437 378.277 124.485 378.325 124.581 378.325H137.829C138.069 378.325 138.189 378.445 138.189 378.685V380.197C138.189 380.437 138.069 380.557 137.829 380.557H122.241C122.001 380.557 121.881 380.437 121.881 380.197V355.717C121.881 355.477 122.001 355.357 122.241 355.357H137.829C138.069 355.357 138.189 355.477 138.189 355.717V357.229ZM169.274 367.417C169.154 367.489 169.154 367.561 169.274 367.633C170.57 368.161 171.554 368.941 172.226 369.973C172.898 371.005 173.234 372.253 173.234 373.717C173.234 375.877 172.538 377.557 171.146 378.757C169.778 379.957 167.966 380.557 165.71 380.557H156.998C156.758 380.557 156.638 380.437 156.638 380.197V355.717C156.638 355.477 156.758 355.357 156.998 355.357H165.458C167.786 355.357 169.61 355.933 170.93 357.085C172.274 358.237 172.946 359.857 172.946 361.945C172.946 363.265 172.622 364.393 171.974 365.329C171.35 366.241 170.45 366.937 169.274 367.417ZM159.338 357.589C159.242 357.589 159.194 357.637 159.194 357.733V366.373C159.194 366.469 159.242 366.517 159.338 366.517H165.458C166.97 366.517 168.17 366.121 169.058 365.329C169.97 364.537 170.426 363.481 170.426 362.161C170.426 360.769 169.97 359.665 169.058 358.849C168.17 358.009 166.97 357.589 165.458 357.589H159.338ZM165.71 378.289C167.222 378.289 168.422 377.857 169.31 376.993C170.222 376.129 170.678 374.965 170.678 373.501C170.678 372.037 170.21 370.873 169.274 370.009C168.362 369.121 167.126 368.677 165.566 368.677H159.338C159.242 368.677 159.194 368.725 159.194 368.821V378.145C159.194 378.241 159.242 378.289 159.338 378.289H165.71ZM227.276 380.557C227.06 380.557 226.916 380.461 226.844 380.269L225.404 375.733C225.38 375.661 225.332 375.625 225.26 375.625H214.496C214.424 375.625 214.376 375.661 214.352 375.733L212.912 380.269C212.84 380.461 212.696 380.557 212.48 380.557H210.536C210.272 380.557 210.176 380.425 210.248 380.161L218.204 355.645C218.276 355.453 218.42 355.357 218.636 355.357H221.084C221.3 355.357 221.444 355.453 221.516 355.645L229.508 380.161L229.544 380.305C229.544 380.473 229.436 380.557 229.22 380.557H227.276ZM215.072 373.357C215.048 373.405 215.048 373.453 215.072 373.501C215.12 373.525 215.168 373.537 215.216 373.537H224.504C224.552 373.537 224.588 373.525 224.612 373.501C224.66 373.453 224.672 373.405 224.648 373.357L219.968 358.669C219.944 358.621 219.908 358.597 219.86 358.597C219.812 358.597 219.776 358.621 219.752 358.669L215.072 373.357ZM262.175 355.717C262.175 355.477 262.295 355.357 262.535 355.357H264.371C264.611 355.357 264.731 355.477 264.731 355.717V380.197C264.731 380.437 264.611 380.557 264.371 380.557H262.571C262.403 380.557 262.259 380.473 262.139 380.305L249.863 360.325C249.839 360.253 249.803 360.229 249.755 360.253C249.707 360.253 249.683 360.289 249.683 360.361L249.719 380.197C249.719 380.437 249.599 380.557 249.359 380.557H247.523C247.283 380.557 247.163 380.437 247.163 380.197V355.717C247.163 355.477 247.283 355.357 247.523 355.357H249.323C249.491 355.357 249.635 355.441 249.755 355.609L262.031 375.589C262.055 375.661 262.091 375.697 262.139 375.697C262.187 375.673 262.211 375.625 262.211 375.553L262.175 355.717ZM284.319 380.557C284.079 380.557 283.959 380.437 283.959 380.197V355.717C283.959 355.477 284.079 355.357 284.319 355.357H292.815C295.191 355.357 297.075 355.981 298.467 357.229C299.883 358.477 300.591 360.169 300.591 362.305V373.609C300.591 375.745 299.883 377.437 298.467 378.685C297.075 379.933 295.191 380.557 292.815 380.557H284.319ZM286.515 378.181C286.515 378.277 286.563 378.325 286.659 378.325H292.923C294.483 378.325 295.719 377.869 296.631 376.957C297.567 376.045 298.035 374.821 298.035 373.285V362.665C298.035 361.105 297.579 359.869 296.667 358.957C295.755 358.045 294.507 357.589 292.923 357.589H286.659C286.563 357.589 286.515 357.637 286.515 357.733V378.181ZM347.62 380.845C345.94 380.845 344.452 380.509 343.156 379.837C341.86 379.165 340.852 378.229 340.132 377.029C339.412 375.805 339.052 374.389 339.052 372.781V355.717C339.052 355.477 339.172 355.357 339.412 355.357H341.248C341.488 355.357 341.608 355.477 341.608 355.717V372.853C341.608 374.557 342.16 375.949 343.264 377.029C344.368 378.085 345.82 378.613 347.62 378.613C349.42 378.613 350.872 378.085 351.976 377.029C353.08 375.949 353.632 374.557 353.632 372.853V355.717C353.632 355.477 353.752 355.357 353.992 355.357H355.828C356.068 355.357 356.188 355.477 356.188 355.717V372.781C356.188 374.389 355.828 375.805 355.108 377.029C354.412 378.229 353.416 379.165 352.12 379.837C350.824 380.509 349.324 380.845 347.62 380.845ZM376.003 380.557C375.763 380.557 375.643 380.437 375.643 380.197V355.717C375.643 355.477 375.763 355.357 376.003 355.357H377.839C378.079 355.357 378.199 355.477 378.199 355.717V380.197C378.199 380.437 378.079 380.557 377.839 380.557H376.003Z" fill="#004991"/>
</svg>
