<svg width="940" height="343" viewBox="0 0 940 343" fill="none" xmlns="http://www.w3.org/2000/svg">
<g clip-path="url(#clip0_1_39)">
<path d="M380.5 267.057H65.5V258.443L223 254.223L380.5 258.443V267.057Z" fill="#004991"/>
<path d="M334.171 78.262H111.829V234.925H334.171V78.262Z" fill="#57D7FF"/>
<path d="M337.462 237.243V75.943H108.538V237.243L65.5 258.443H380.5L337.462 237.243ZM116.867 84.272H329.133V228.914H116.867V84.272Z" fill="#0092CC"/>
<path d="M164.843 183.984V119.175H271.13C272.934 125.311 278.608 129.808 285.321 129.808C293.48 129.808 300.119 123.17 300.119 115.01C300.119 106.85 293.481 100.211 285.321 100.211C278.608 100.211 272.934 104.708 271.13 110.845H156.514V183.983C150.377 185.787 145.88 191.461 145.88 198.175C145.88 206.335 152.518 212.974 160.678 212.974C168.838 212.974 175.476 206.336 175.476 198.175C175.477 191.462 170.98 185.788 164.843 183.984ZM285.321 108.541C288.888 108.541 291.79 111.444 291.79 115.011C291.79 118.578 288.889 121.48 285.321 121.48C281.753 121.48 278.852 118.579 278.852 115.011C278.853 111.443 281.754 108.541 285.321 108.541ZM160.679 204.646C157.112 204.646 154.21 201.743 154.21 198.176C154.21 194.609 157.112 191.706 160.679 191.706C164.246 191.706 167.148 194.609 167.148 198.176C167.148 201.743 164.246 204.646 160.679 204.646ZM285.321 183.307C278.582 183.307 272.893 187.839 271.111 194.011H257.964C256.16 187.874 250.486 183.377 243.773 183.377C235.613 183.377 228.975 190.015 228.975 198.176C228.975 206.337 235.613 212.975 243.773 212.975C250.486 212.975 256.16 208.478 257.964 202.341H271.147C272.974 208.442 278.632 212.904 285.32 212.904C293.479 212.904 300.118 206.266 300.118 198.105C300.119 189.946 293.481 183.307 285.321 183.307ZM243.774 204.646C240.207 204.646 237.305 201.743 237.305 198.176C237.305 194.609 240.207 191.706 243.774 191.706C247.341 191.706 250.243 194.609 250.243 198.176C250.243 201.743 247.341 204.646 243.774 204.646ZM285.321 204.575C281.754 204.575 278.852 201.672 278.852 198.105C278.852 194.538 281.753 191.636 285.321 191.636C288.889 191.636 291.79 194.537 291.79 198.105C291.79 201.672 288.889 204.575 285.321 204.575ZM285.321 141.76C278.506 141.76 272.767 146.397 271.056 152.678H198.061V183.984C191.924 185.788 187.427 191.462 187.427 198.176C187.427 206.336 194.065 212.975 202.225 212.975C210.385 212.975 217.023 206.337 217.023 198.176C217.023 191.462 212.526 185.788 206.389 183.984V161.007H271.207C273.1 167 278.709 171.357 285.319 171.357C293.478 171.357 300.117 164.719 300.117 156.558C300.119 148.398 293.481 141.76 285.321 141.76ZM208.696 198.176C208.696 201.743 205.794 204.646 202.227 204.646C198.66 204.646 195.758 201.743 195.758 198.176C195.758 194.609 198.66 191.706 202.227 191.706C205.794 191.706 208.696 194.609 208.696 198.176ZM285.321 163.028C281.754 163.028 278.852 160.125 278.852 156.558C278.852 152.991 281.753 150.089 285.321 150.089C288.889 150.089 291.79 152.99 291.79 156.558C291.79 160.126 288.889 163.028 285.321 163.028Z" fill="white"/>
</g>
<path d="M444.682 183.5V158.57L447.292 165.77L419.932 120.5H432.442L454.402 156.95H447.382L469.522 120.5H481.042L453.682 165.77L456.382 158.57V183.5H444.682ZM476.015 183.5L504.365 120.5H515.885L544.325 183.5H532.085L507.695 126.71H512.375L488.075 183.5H476.015ZM489.065 168.92L492.215 159.74H526.235L529.385 168.92H489.065ZM547.567 183.5V175.67L588.247 125.99L589.597 130.4H548.197V120.5H600.127V128.33L559.447 178.01L558.007 173.6H601.297V183.5H547.567ZM612.015 183.5V120.5H621.645L661.155 169.01H656.385V120.5H667.995V183.5H658.365L618.855 134.99H623.625V183.5H612.015ZM676.416 190.34V183.5H721.416V190.34H676.416ZM734.753 183.5V125L739.883 130.31H721.433V120.5H746.453V183.5H734.753ZM785.23 184.4C780.25 184.4 775.75 183.14 771.73 180.62C767.77 178.1 764.65 174.44 762.37 169.64C760.09 164.78 758.95 158.9 758.95 152C758.95 145.1 760.09 139.25 762.37 134.45C764.65 129.59 767.77 125.9 771.73 123.38C775.75 120.86 780.25 119.6 785.23 119.6C790.27 119.6 794.77 120.86 798.73 123.38C802.69 125.9 805.81 129.59 808.09 134.45C810.43 139.25 811.6 145.1 811.6 152C811.6 158.9 810.43 164.78 808.09 169.64C805.81 174.44 802.69 178.1 798.73 180.62C794.77 183.14 790.27 184.4 785.23 184.4ZM785.23 174.23C788.17 174.23 790.72 173.45 792.88 171.89C795.04 170.27 796.72 167.81 797.92 164.51C799.18 161.21 799.81 157.04 799.81 152C799.81 146.9 799.18 142.73 797.92 139.49C796.72 136.19 795.04 133.76 792.88 132.2C790.72 130.58 788.17 129.77 785.23 129.77C782.41 129.77 779.89 130.58 777.67 132.2C775.51 133.76 773.8 136.19 772.54 139.49C771.34 142.73 770.74 146.9 770.74 152C770.74 157.04 771.34 161.21 772.54 164.51C773.8 167.81 775.51 170.27 777.67 171.89C779.89 173.45 782.41 174.23 785.23 174.23ZM844.797 184.4C839.577 184.4 835.047 183.62 831.207 182.06C827.367 180.5 824.397 178.31 822.297 175.49C820.197 172.61 819.147 169.25 819.147 165.41C819.147 161.57 820.167 158.33 822.207 155.69C824.247 153.05 827.187 151.04 831.027 149.66C834.867 148.28 839.457 147.59 844.797 147.59C850.137 147.59 854.727 148.28 858.567 149.66C862.467 151.04 865.437 153.08 867.477 155.78C869.577 158.42 870.627 161.63 870.627 165.41C870.627 169.25 869.547 172.61 867.387 175.49C865.287 178.31 862.287 180.5 858.387 182.06C854.547 183.62 850.017 184.4 844.797 184.4ZM844.797 175.22C849.117 175.22 852.537 174.32 855.057 172.52C857.577 170.72 858.837 168.23 858.837 165.05C858.837 161.93 857.577 159.47 855.057 157.67C852.537 155.87 849.117 154.97 844.797 154.97C840.477 154.97 837.087 155.87 834.627 157.67C832.167 159.47 830.937 161.93 830.937 165.05C830.937 168.23 832.167 170.72 834.627 172.52C837.087 174.32 840.477 175.22 844.797 175.22ZM844.797 153.71C839.937 153.71 835.767 153.08 832.287 151.82C828.807 150.5 826.107 148.61 824.187 146.15C822.327 143.63 821.397 140.63 821.397 137.15C821.397 133.55 822.357 130.46 824.277 127.88C826.257 125.24 829.017 123.2 832.557 121.76C836.097 120.32 840.177 119.6 844.797 119.6C849.477 119.6 853.587 120.32 857.127 121.76C860.667 123.2 863.427 125.24 865.407 127.88C867.387 130.46 868.377 133.55 868.377 137.15C868.377 140.63 867.417 143.63 865.497 146.15C863.637 148.61 860.937 150.5 857.397 151.82C853.857 153.08 849.657 153.71 844.797 153.71ZM844.797 146.51C848.517 146.51 851.457 145.73 853.617 144.17C855.777 142.55 856.857 140.39 856.857 137.69C856.857 134.87 855.747 132.68 853.527 131.12C851.307 129.56 848.397 128.78 844.797 128.78C841.197 128.78 838.317 129.56 836.157 131.12C833.997 132.68 832.917 134.87 832.917 137.69C832.917 140.39 833.967 142.55 836.067 144.17C838.227 145.73 841.137 146.51 844.797 146.51Z" fill="#004991"/>
<path d="M502.24 245.5C502.048 245.5 501.916 245.404 501.844 245.212L494.932 220.696L494.896 220.588C494.896 220.396 495.016 220.3 495.256 220.3H497.164C497.38 220.3 497.512 220.396 497.56 220.588L503.032 240.316C503.056 240.364 503.08 240.388 503.104 240.388C503.152 240.388 503.188 240.364 503.212 240.316L508.288 220.624C508.336 220.408 508.468 220.3 508.684 220.3H510.628C510.844 220.3 510.976 220.408 511.024 220.624L516.316 240.316C516.34 240.364 516.364 240.388 516.388 240.388C516.436 240.388 516.472 240.364 516.496 240.316L521.968 220.588C522.016 220.396 522.148 220.3 522.364 220.3H524.2C524.32 220.3 524.404 220.336 524.452 220.408C524.524 220.48 524.548 220.576 524.524 220.696L517.72 245.212C517.672 245.404 517.54 245.5 517.324 245.5H515.416C515.2 245.5 515.068 245.392 515.02 245.176L509.764 225.016C509.74 224.968 509.704 224.944 509.656 224.944C509.632 224.944 509.608 224.968 509.584 225.016L504.436 245.176C504.412 245.392 504.28 245.5 504.04 245.5H502.24ZM557.689 222.172C557.689 222.412 557.569 222.532 557.329 222.532H544.081C543.985 222.532 543.937 222.58 543.937 222.676V231.568C543.937 231.664 543.985 231.712 544.081 231.712H553.369C553.609 231.712 553.729 231.832 553.729 232.072V233.584C553.729 233.824 553.609 233.944 553.369 233.944H544.081C543.985 233.944 543.937 233.992 543.937 234.088V243.124C543.937 243.22 543.985 243.268 544.081 243.268H557.329C557.569 243.268 557.689 243.388 557.689 243.628V245.14C557.689 245.38 557.569 245.5 557.329 245.5H541.741C541.501 245.5 541.381 245.38 541.381 245.14V220.66C541.381 220.42 541.501 220.3 541.741 220.3H557.329C557.569 220.3 557.689 220.42 557.689 220.66V222.172ZM588.774 232.36C588.654 232.432 588.654 232.504 588.774 232.576C590.07 233.104 591.054 233.884 591.726 234.916C592.398 235.948 592.734 237.196 592.734 238.66C592.734 240.82 592.038 242.5 590.646 243.7C589.278 244.9 587.466 245.5 585.21 245.5H576.498C576.258 245.5 576.138 245.38 576.138 245.14V220.66C576.138 220.42 576.258 220.3 576.498 220.3H584.958C587.286 220.3 589.11 220.876 590.43 222.028C591.774 223.18 592.446 224.8 592.446 226.888C592.446 228.208 592.122 229.336 591.474 230.272C590.85 231.184 589.95 231.88 588.774 232.36ZM578.838 222.532C578.742 222.532 578.694 222.58 578.694 222.676V231.316C578.694 231.412 578.742 231.46 578.838 231.46H584.958C586.47 231.46 587.67 231.064 588.558 230.272C589.47 229.48 589.926 228.424 589.926 227.104C589.926 225.712 589.47 224.608 588.558 223.792C587.67 222.952 586.47 222.532 584.958 222.532H578.838ZM585.21 243.232C586.722 243.232 587.922 242.8 588.81 241.936C589.722 241.072 590.178 239.908 590.178 238.444C590.178 236.98 589.71 235.816 588.774 234.952C587.862 234.064 586.626 233.62 585.066 233.62H578.838C578.742 233.62 578.694 233.668 578.694 233.764V243.088C578.694 243.184 578.742 243.232 578.838 243.232H585.21ZM646.776 245.5C646.56 245.5 646.416 245.404 646.344 245.212L644.904 240.676C644.88 240.604 644.832 240.568 644.76 240.568H633.996C633.924 240.568 633.876 240.604 633.852 240.676L632.412 245.212C632.34 245.404 632.196 245.5 631.98 245.5H630.036C629.772 245.5 629.676 245.368 629.748 245.104L637.704 220.588C637.776 220.396 637.92 220.3 638.136 220.3H640.584C640.8 220.3 640.944 220.396 641.016 220.588L649.008 245.104L649.044 245.248C649.044 245.416 648.936 245.5 648.72 245.5H646.776ZM634.572 238.3C634.548 238.348 634.548 238.396 634.572 238.444C634.62 238.468 634.668 238.48 634.716 238.48H644.004C644.052 238.48 644.088 238.468 644.112 238.444C644.16 238.396 644.172 238.348 644.148 238.3L639.468 223.612C639.444 223.564 639.408 223.54 639.36 223.54C639.312 223.54 639.276 223.564 639.252 223.612L634.572 238.3ZM681.675 220.66C681.675 220.42 681.795 220.3 682.035 220.3H683.871C684.111 220.3 684.231 220.42 684.231 220.66V245.14C684.231 245.38 684.111 245.5 683.871 245.5H682.071C681.903 245.5 681.759 245.416 681.639 245.248L669.363 225.268C669.339 225.196 669.303 225.172 669.255 225.196C669.207 225.196 669.183 225.232 669.183 225.304L669.219 245.14C669.219 245.38 669.099 245.5 668.859 245.5H667.023C666.783 245.5 666.663 245.38 666.663 245.14V220.66C666.663 220.42 666.783 220.3 667.023 220.3H668.823C668.991 220.3 669.135 220.384 669.255 220.552L681.531 240.532C681.555 240.604 681.591 240.64 681.639 240.64C681.687 240.616 681.711 240.568 681.711 240.496L681.675 220.66ZM703.819 245.5C703.579 245.5 703.459 245.38 703.459 245.14V220.66C703.459 220.42 703.579 220.3 703.819 220.3H712.315C714.691 220.3 716.575 220.924 717.967 222.172C719.383 223.42 720.091 225.112 720.091 227.248V238.552C720.091 240.688 719.383 242.38 717.967 243.628C716.575 244.876 714.691 245.5 712.315 245.5H703.819ZM706.015 243.124C706.015 243.22 706.063 243.268 706.159 243.268H712.423C713.983 243.268 715.219 242.812 716.131 241.9C717.067 240.988 717.535 239.764 717.535 238.228V227.608C717.535 226.048 717.079 224.812 716.167 223.9C715.255 222.988 714.007 222.532 712.423 222.532H706.159C706.063 222.532 706.015 222.58 706.015 222.676V243.124ZM767.12 245.788C765.44 245.788 763.952 245.452 762.656 244.78C761.36 244.108 760.352 243.172 759.632 241.972C758.912 240.748 758.552 239.332 758.552 237.724V220.66C758.552 220.42 758.672 220.3 758.912 220.3H760.748C760.988 220.3 761.108 220.42 761.108 220.66V237.796C761.108 239.5 761.66 240.892 762.764 241.972C763.868 243.028 765.32 243.556 767.12 243.556C768.92 243.556 770.372 243.028 771.476 241.972C772.58 240.892 773.132 239.5 773.132 237.796V220.66C773.132 220.42 773.252 220.3 773.492 220.3H775.328C775.568 220.3 775.688 220.42 775.688 220.66V237.724C775.688 239.332 775.328 240.748 774.608 241.972C773.912 243.172 772.916 244.108 771.62 244.78C770.324 245.452 768.824 245.788 767.12 245.788ZM795.503 245.5C795.263 245.5 795.143 245.38 795.143 245.14V220.66C795.143 220.42 795.263 220.3 795.503 220.3H797.339C797.579 220.3 797.699 220.42 797.699 220.66V245.14C797.699 245.38 797.579 245.5 797.339 245.5H795.503Z" fill="#004991"/>
<defs>
<clipPath id="clip0_1_39">
<rect width="315" height="191.114" fill="white" transform="translate(65.5 75.943)"/>
</clipPath>
</defs>
</svg>
