<svg width="455" height="385" viewBox="0 0 455 385" fill="none" xmlns="http://www.w3.org/2000/svg">
<g clip-path="url(#clip0_202_20)">
<path d="M385.5 191.557H70.5V182.943L228 178.723L385.5 182.943V191.557Z" fill="#004991"/>
<path d="M339.171 2.76172H116.829V159.425H339.171V2.76172Z" fill="#57D7FF"/>
<path d="M342.462 161.743V0.442871H113.538V161.743L70.5 182.943H385.5L342.462 161.743ZM121.867 8.77187H334.133V153.414H121.867V8.77187Z" fill="#0092CC"/>
<path d="M169.843 108.484V43.6749H276.13C277.934 49.8109 283.608 54.3079 290.321 54.3079C298.48 54.3079 305.119 47.6699 305.119 39.5099C305.119 31.3499 298.481 24.7109 290.321 24.7109C283.608 24.7109 277.934 29.2079 276.13 35.3449H161.514V108.483C155.377 110.287 150.88 115.961 150.88 122.675C150.88 130.835 157.518 137.474 165.678 137.474C173.838 137.474 180.476 130.836 180.476 122.675C180.477 115.962 175.98 110.288 169.843 108.484ZM290.321 33.0409C293.888 33.0409 296.79 35.9439 296.79 39.5109C296.79 43.0779 293.889 45.9799 290.321 45.9799C286.753 45.9799 283.852 43.0789 283.852 39.5109C283.853 35.9429 286.754 33.0409 290.321 33.0409ZM165.679 129.146C162.112 129.146 159.21 126.243 159.21 122.676C159.21 119.109 162.112 116.206 165.679 116.206C169.246 116.206 172.148 119.109 172.148 122.676C172.148 126.243 169.246 129.146 165.679 129.146ZM290.321 107.807C283.582 107.807 277.893 112.339 276.111 118.511H262.964C261.16 112.374 255.486 107.877 248.773 107.877C240.613 107.877 233.975 114.515 233.975 122.676C233.975 130.837 240.613 137.475 248.773 137.475C255.486 137.475 261.16 132.978 262.964 126.841H276.147C277.974 132.942 283.632 137.404 290.32 137.404C298.479 137.404 305.118 130.766 305.118 122.605C305.119 114.446 298.481 107.807 290.321 107.807ZM248.774 129.146C245.207 129.146 242.305 126.243 242.305 122.676C242.305 119.109 245.207 116.206 248.774 116.206C252.341 116.206 255.243 119.109 255.243 122.676C255.243 126.243 252.341 129.146 248.774 129.146ZM290.321 129.075C286.754 129.075 283.852 126.172 283.852 122.605C283.852 119.038 286.753 116.136 290.321 116.136C293.889 116.136 296.79 119.037 296.79 122.605C296.79 126.172 293.889 129.075 290.321 129.075ZM290.321 66.2599C283.506 66.2599 277.767 70.8969 276.056 77.1779H203.061V108.484C196.924 110.288 192.427 115.962 192.427 122.676C192.427 130.836 199.065 137.475 207.225 137.475C215.385 137.475 222.023 130.837 222.023 122.676C222.023 115.962 217.526 110.288 211.389 108.484V85.5069H276.207C278.1 91.4999 283.709 95.8569 290.319 95.8569C298.478 95.8569 305.117 89.2189 305.117 81.0579C305.119 72.8979 298.481 66.2599 290.321 66.2599ZM213.696 122.676C213.696 126.243 210.794 129.146 207.227 129.146C203.66 129.146 200.758 126.243 200.758 122.676C200.758 119.109 203.66 116.206 207.227 116.206C210.794 116.206 213.696 119.109 213.696 122.676ZM290.321 87.5279C286.754 87.5279 283.852 84.6249 283.852 81.0579C283.852 77.4909 286.753 74.5889 290.321 74.5889C293.889 74.5889 296.79 77.4899 296.79 81.0579C296.79 84.6259 293.889 87.5279 290.321 87.5279Z" fill="white"/>
</g>
<path d="M25.1822 318.557V293.627L27.7922 300.827L0.432187 255.557H12.9422L34.9022 292.007H27.8822L50.0222 255.557H61.5422L34.1822 300.827L36.8822 293.627V318.557H25.1822ZM56.5148 318.557L84.8648 255.557H96.3848L124.825 318.557H112.585L88.1948 261.767H92.8748L68.5748 318.557H56.5148ZM69.5648 303.977L72.7148 294.797H106.735L109.885 303.977H69.5648ZM128.067 318.557V310.727L168.747 261.047L170.097 265.457H128.697V255.557H180.627V263.387L139.947 313.067L138.507 308.657H181.797V318.557H128.067ZM192.515 318.557V255.557H202.145L241.655 304.067H236.885V255.557H248.495V318.557H238.865L199.355 270.047H204.125V318.557H192.515ZM256.916 325.397V318.557H301.916V325.397H256.916ZM315.253 318.557V260.057L320.383 265.367H301.933V255.557H326.953V318.557H315.253ZM365.73 319.457C360.75 319.457 356.25 318.197 352.23 315.677C348.27 313.157 345.15 309.497 342.87 304.697C340.59 299.837 339.45 293.957 339.45 287.057C339.45 280.157 340.59 274.307 342.87 269.507C345.15 264.647 348.27 260.957 352.23 258.437C356.25 255.917 360.75 254.657 365.73 254.657C370.77 254.657 375.27 255.917 379.23 258.437C383.19 260.957 386.31 264.647 388.59 269.507C390.93 274.307 392.1 280.157 392.1 287.057C392.1 293.957 390.93 299.837 388.59 304.697C386.31 309.497 383.19 313.157 379.23 315.677C375.27 318.197 370.77 319.457 365.73 319.457ZM365.73 309.287C368.67 309.287 371.22 308.507 373.38 306.947C375.54 305.327 377.22 302.867 378.42 299.567C379.68 296.267 380.31 292.097 380.31 287.057C380.31 281.957 379.68 277.787 378.42 274.547C377.22 271.247 375.54 268.817 373.38 267.257C371.22 265.637 368.67 264.827 365.73 264.827C362.91 264.827 360.39 265.637 358.17 267.257C356.01 268.817 354.3 271.247 353.04 274.547C351.84 277.787 351.24 281.957 351.24 287.057C351.24 292.097 351.84 296.267 353.04 299.567C354.3 302.867 356.01 305.327 358.17 306.947C360.39 308.507 362.91 309.287 365.73 309.287ZM425.297 319.457C420.077 319.457 415.547 318.677 411.707 317.117C407.867 315.557 404.897 313.367 402.797 310.547C400.697 307.667 399.647 304.307 399.647 300.467C399.647 296.627 400.667 293.387 402.707 290.747C404.747 288.107 407.687 286.097 411.527 284.717C415.367 283.337 419.957 282.647 425.297 282.647C430.637 282.647 435.227 283.337 439.067 284.717C442.967 286.097 445.937 288.137 447.977 290.837C450.077 293.477 451.127 296.687 451.127 300.467C451.127 304.307 450.047 307.667 447.887 310.547C445.787 313.367 442.787 315.557 438.887 317.117C435.047 318.677 430.517 319.457 425.297 319.457ZM425.297 310.277C429.617 310.277 433.037 309.377 435.557 307.577C438.077 305.777 439.337 303.287 439.337 300.107C439.337 296.987 438.077 294.527 435.557 292.727C433.037 290.927 429.617 290.027 425.297 290.027C420.977 290.027 417.587 290.927 415.127 292.727C412.667 294.527 411.437 296.987 411.437 300.107C411.437 303.287 412.667 305.777 415.127 307.577C417.587 309.377 420.977 310.277 425.297 310.277ZM425.297 288.767C420.437 288.767 416.267 288.137 412.787 286.877C409.307 285.557 406.607 283.667 404.687 281.207C402.827 278.687 401.897 275.687 401.897 272.207C401.897 268.607 402.857 265.517 404.777 262.937C406.757 260.297 409.517 258.257 413.057 256.817C416.597 255.377 420.677 254.657 425.297 254.657C429.977 254.657 434.087 255.377 437.627 256.817C441.167 258.257 443.927 260.297 445.907 262.937C447.887 265.517 448.877 268.607 448.877 272.207C448.877 275.687 447.917 278.687 445.997 281.207C444.137 283.667 441.437 285.557 437.897 286.877C434.357 288.137 430.157 288.767 425.297 288.767ZM425.297 281.567C429.017 281.567 431.957 280.787 434.117 279.227C436.277 277.607 437.357 275.447 437.357 272.747C437.357 269.927 436.247 267.737 434.027 266.177C431.807 264.617 428.897 263.837 425.297 263.837C421.697 263.837 418.817 264.617 416.657 266.177C414.497 267.737 413.417 269.927 413.417 272.747C413.417 275.447 414.467 277.607 416.567 279.227C418.727 280.787 421.637 281.567 425.297 281.567Z" fill="#004991"/>
<path d="M68.7989 354.749C68.7989 355.055 68.6455 355.209 68.3389 355.209H51.4569C51.3342 355.209 51.2729 355.27 51.2729 355.393V366.755C51.2729 366.877 51.3342 366.939 51.4569 366.939H63.2789C63.5855 366.939 63.7389 367.092 63.7389 367.399V369.331C63.7389 369.637 63.5855 369.791 63.2789 369.791H51.4569C51.3342 369.791 51.2729 369.852 51.2729 369.975V384.097C51.2729 384.403 51.1195 384.557 50.8129 384.557H48.4669C48.1602 384.557 48.0069 384.403 48.0069 384.097V352.817C48.0069 352.51 48.1602 352.357 48.4669 352.357H68.3389C68.6455 352.357 68.7989 352.51 68.7989 352.817V354.749ZM109.479 384.557C109.203 384.557 109.019 384.449 108.927 384.235L102.165 369.975C102.135 369.883 102.073 369.837 101.981 369.837H94.1614C94.0387 369.837 93.9774 369.898 93.9774 370.021V384.097C93.9774 384.403 93.8241 384.557 93.5174 384.557H91.1714C90.8647 384.557 90.7114 384.403 90.7114 384.097V352.817C90.7114 352.51 90.8647 352.357 91.1714 352.357H103.085C105.723 352.357 107.854 353.185 109.479 354.841C111.105 356.466 111.917 358.597 111.917 361.235C111.917 363.381 111.335 365.206 110.169 366.709C109.004 368.211 107.425 369.177 105.431 369.607C105.309 369.668 105.278 369.745 105.339 369.837L112.239 384.005C112.27 384.066 112.285 384.143 112.285 384.235C112.285 384.449 112.163 384.557 111.917 384.557H109.479ZM94.1614 355.209C94.0387 355.209 93.9774 355.27 93.9774 355.393V367.031C93.9774 367.153 94.0387 367.215 94.1614 367.215H102.717C104.496 367.215 105.937 366.663 107.041 365.559C108.145 364.455 108.697 363.013 108.697 361.235C108.697 359.456 108.145 358.015 107.041 356.911C105.937 355.776 104.496 355.209 102.717 355.209H94.1614ZM145.373 384.925C143.196 384.925 141.279 384.48 139.623 383.591C137.967 382.701 136.679 381.459 135.759 379.865C134.87 378.239 134.425 376.369 134.425 374.253V362.661C134.425 360.545 134.87 358.689 135.759 357.095C136.679 355.469 137.967 354.212 139.623 353.323C141.279 352.433 143.196 351.989 145.373 351.989C147.551 351.989 149.467 352.433 151.123 353.323C152.81 354.212 154.098 355.469 154.987 357.095C155.907 358.689 156.367 360.545 156.367 362.661V374.253C156.367 376.369 155.907 378.239 154.987 379.865C154.098 381.459 152.81 382.701 151.123 383.591C149.467 384.48 147.551 384.925 145.373 384.925ZM145.373 382.119C147.704 382.119 149.575 381.413 150.985 380.003C152.396 378.592 153.101 376.721 153.101 374.391V362.615C153.101 360.284 152.396 358.413 150.985 357.003C149.575 355.561 147.704 354.841 145.373 354.841C143.073 354.841 141.218 355.561 139.807 357.003C138.397 358.413 137.691 360.284 137.691 362.615V374.391C137.691 376.721 138.397 378.592 139.807 380.003C141.218 381.413 143.073 382.119 145.373 382.119ZM199.795 352.817C199.795 352.51 199.948 352.357 200.255 352.357H202.601C202.907 352.357 203.061 352.51 203.061 352.817V384.097C203.061 384.403 202.907 384.557 202.601 384.557H200.301C200.086 384.557 199.902 384.449 199.749 384.235L184.063 358.705C184.032 358.613 183.986 358.582 183.925 358.613C183.863 358.613 183.833 358.659 183.833 358.751L183.879 384.097C183.879 384.403 183.725 384.557 183.419 384.557H181.073C180.766 384.557 180.613 384.403 180.613 384.097V352.817C180.613 352.51 180.766 352.357 181.073 352.357H183.373C183.587 352.357 183.771 352.464 183.925 352.679L199.611 378.209C199.641 378.301 199.687 378.347 199.749 378.347C199.81 378.316 199.841 378.255 199.841 378.163L199.795 352.817ZM247.671 352.357C247.977 352.357 248.131 352.51 248.131 352.817V354.795C248.131 355.101 247.977 355.255 247.671 355.255H238.655C238.532 355.255 238.471 355.316 238.471 355.439V384.097C238.471 384.403 238.317 384.557 238.011 384.557H235.665C235.358 384.557 235.205 384.403 235.205 384.097V355.439C235.205 355.316 235.143 355.255 235.021 355.255H226.373C226.066 355.255 225.913 355.101 225.913 354.795V352.817C225.913 352.51 226.066 352.357 226.373 352.357H247.671ZM317.615 354.749C317.615 355.055 317.462 355.209 317.155 355.209H300.227C300.104 355.209 300.043 355.27 300.043 355.393V366.755C300.043 366.877 300.104 366.939 300.227 366.939H312.095C312.402 366.939 312.555 367.092 312.555 367.399V369.331C312.555 369.637 312.402 369.791 312.095 369.791H300.227C300.104 369.791 300.043 369.852 300.043 369.975V381.521C300.043 381.643 300.104 381.705 300.227 381.705H317.155C317.462 381.705 317.615 381.858 317.615 382.165V384.097C317.615 384.403 317.462 384.557 317.155 384.557H297.237C296.93 384.557 296.777 384.403 296.777 384.097V352.817C296.777 352.51 296.93 352.357 297.237 352.357H317.155C317.462 352.357 317.615 352.51 317.615 352.817V354.749ZM360.371 352.817C360.371 352.51 360.524 352.357 360.831 352.357H363.177C363.483 352.357 363.637 352.51 363.637 352.817V384.097C363.637 384.403 363.483 384.557 363.177 384.557H360.877C360.662 384.557 360.478 384.449 360.325 384.235L344.639 358.705C344.608 358.613 344.562 358.582 344.501 358.613C344.439 358.613 344.409 358.659 344.409 358.751L344.455 384.097C344.455 384.403 344.301 384.557 343.995 384.557H341.649C341.342 384.557 341.189 384.403 341.189 384.097V352.817C341.189 352.51 341.342 352.357 341.649 352.357H343.949C344.163 352.357 344.347 352.464 344.501 352.679L360.187 378.209C360.217 378.301 360.263 378.347 360.325 378.347C360.386 378.316 360.417 378.255 360.417 378.163L360.371 352.817ZM388.666 384.557C388.359 384.557 388.206 384.403 388.206 384.097V352.817C388.206 352.51 388.359 352.357 388.666 352.357H399.522C402.558 352.357 404.965 353.154 406.744 354.749C408.553 356.343 409.458 358.505 409.458 361.235V375.679C409.458 378.408 408.553 380.57 406.744 382.165C404.965 383.759 402.558 384.557 399.522 384.557H388.666ZM391.472 381.521C391.472 381.643 391.533 381.705 391.656 381.705H399.66C401.653 381.705 403.232 381.122 404.398 379.957C405.594 378.791 406.192 377.227 406.192 375.265V361.695C406.192 359.701 405.609 358.122 404.444 356.957C403.278 355.791 401.684 355.209 399.66 355.209H391.656C391.533 355.209 391.472 355.27 391.472 355.393V381.521Z" fill="#004991"/>
<defs>
<clipPath id="clip0_202_20">
<rect width="315" height="191.114" fill="white" transform="translate(70.5 0.442871)"/>
</clipPath>
</defs>
</svg>
