<svg width="751" height="192" viewBox="0 0 751 192" fill="none" xmlns="http://www.w3.org/2000/svg">
<g clip-path="url(#clip0_206_4)">
<path d="M315 191.114H0V182.5L157.5 178.28L315 182.5V191.114Z" fill="#004991"/>
<path d="M268.671 2.31885H46.3291V158.982H268.671V2.31885Z" fill="#57D7FF"/>
<path d="M271.962 161.3V0H43.038V161.3L0 182.5H315L271.962 161.3ZM51.367 8.329H263.633V152.971H51.367V8.329Z" fill="#0092CC"/>
<path d="M99.3429 108.041V43.2321H205.63C207.434 49.3681 213.108 53.8651 219.821 53.8651C227.98 53.8651 234.619 47.2271 234.619 39.0671C234.619 30.9071 227.981 24.2681 219.821 24.2681C213.108 24.2681 207.434 28.7651 205.63 34.9021H91.0139V108.04C84.8769 109.844 80.3799 115.518 80.3799 122.232C80.3799 130.392 87.0179 137.031 95.1779 137.031C103.338 137.031 109.976 130.393 109.976 122.232C109.977 115.519 105.48 109.845 99.3429 108.041ZM219.821 32.5981C223.388 32.5981 226.29 35.5011 226.29 39.0681C226.29 42.6351 223.389 45.5371 219.821 45.5371C216.253 45.5371 213.352 42.6361 213.352 39.0681C213.353 35.5001 216.254 32.5981 219.821 32.5981ZM95.1789 128.703C91.6119 128.703 88.7099 125.8 88.7099 122.233C88.7099 118.666 91.6119 115.763 95.1789 115.763C98.7459 115.763 101.648 118.666 101.648 122.233C101.648 125.8 98.7459 128.703 95.1789 128.703ZM219.821 107.364C213.082 107.364 207.393 111.896 205.611 118.068H192.464C190.66 111.931 184.986 107.434 178.273 107.434C170.113 107.434 163.475 114.072 163.475 122.233C163.475 130.394 170.113 137.032 178.273 137.032C184.986 137.032 190.66 132.535 192.464 126.398H205.647C207.474 132.499 213.132 136.961 219.82 136.961C227.979 136.961 234.618 130.323 234.618 122.162C234.619 114.003 227.981 107.364 219.821 107.364ZM178.274 128.703C174.707 128.703 171.805 125.8 171.805 122.233C171.805 118.666 174.707 115.763 178.274 115.763C181.841 115.763 184.743 118.666 184.743 122.233C184.743 125.8 181.841 128.703 178.274 128.703ZM219.821 128.632C216.254 128.632 213.352 125.729 213.352 122.162C213.352 118.595 216.253 115.693 219.821 115.693C223.389 115.693 226.29 118.594 226.29 122.162C226.29 125.729 223.389 128.632 219.821 128.632ZM219.821 65.8171C213.006 65.8171 207.267 70.4541 205.556 76.7351H132.561V108.041C126.424 109.845 121.927 115.519 121.927 122.233C121.927 130.393 128.565 137.032 136.725 137.032C144.885 137.032 151.523 130.394 151.523 122.233C151.523 115.519 147.026 109.845 140.889 108.041V85.0641H205.707C207.6 91.0571 213.209 95.4141 219.819 95.4141C227.978 95.4141 234.617 88.7761 234.617 80.6151C234.619 72.4551 227.981 65.8171 219.821 65.8171ZM143.196 122.233C143.196 125.8 140.294 128.703 136.727 128.703C133.16 128.703 130.258 125.8 130.258 122.233C130.258 118.666 133.16 115.763 136.727 115.763C140.294 115.763 143.196 118.666 143.196 122.233ZM219.821 87.0851C216.254 87.0851 213.352 84.1821 213.352 80.6151C213.352 77.0481 216.253 74.1461 219.821 74.1461C223.389 74.1461 226.29 77.0471 226.29 80.6151C226.29 84.1831 223.389 87.0851 219.821 87.0851Z" fill="white"/>
</g>
<path d="M380.894 96.5571V72.4371L365.144 48.8571C364.064 47.1771 362.864 45.6471 361.544 44.2671C360.284 42.8271 358.934 41.6271 357.494 40.6671C356.054 39.6471 354.464 39.0771 352.724 38.9571V37.1571H361.904C364.124 37.1571 366.104 37.6671 367.844 38.6871C369.644 39.6471 371.204 40.8771 372.524 42.3771C373.904 43.8771 375.074 45.4371 376.034 47.0571L388.634 66.2271L406.634 37.1571H411.764L391.064 70.8171V96.5571H380.894ZM461.244 96.9171C459.504 96.9171 457.584 96.6771 455.484 96.1971C453.444 95.6571 451.434 94.5771 449.454 92.9571C447.534 91.2771 445.884 88.6971 444.504 85.2171L442.344 79.9071H417.864L410.574 96.5571H406.164L432.174 37.1571H435.594L455.664 85.2171C456.864 88.1571 458.184 90.3771 459.624 91.8771C461.124 93.3171 462.984 94.1571 465.204 94.3971V96.4671C464.724 96.5871 464.094 96.6771 463.314 96.7371C462.594 96.8571 461.904 96.9171 461.244 96.9171ZM419.574 76.0371H440.544L430.284 51.4671L419.574 76.0371ZM465.168 96.5571V94.1271L500.268 40.9371H479.838C476.478 40.9371 473.838 41.7771 471.918 43.4571C470.058 45.0771 469.128 47.8071 469.128 51.6471H466.788V44.3571C466.788 43.1571 466.998 42.0171 467.418 40.9371C467.838 39.7971 468.588 38.8971 469.668 38.2371C470.808 37.5171 472.398 37.1571 474.438 37.1571H514.668L478.218 92.6871H513.858V96.5571H465.168ZM568.012 97.0971L529.672 50.9271V96.5571H525.532V47.9571C525.532 45.4971 524.962 43.4871 523.822 41.9271C522.742 40.3071 520.612 39.4971 517.432 39.4971H516.802V37.1571H522.922C526.162 37.1571 528.772 37.6371 530.752 38.5971C532.792 39.4971 534.502 40.8171 535.882 42.5571L567.112 79.8171V37.1571H571.252V97.0971H568.012ZM579.303 102.497V96.5571H616.383V102.497H579.303ZM628.406 96.5571V47.1471L620.216 52.3671L618.236 49.9371L632.186 37.1571H638.666V96.5571H628.406ZM672.633 98.3571C667.173 98.3571 662.763 97.0371 659.403 94.3971C656.043 91.7571 653.643 88.0671 652.203 83.3271C650.763 78.5871 650.043 73.0971 650.043 66.8571C650.043 60.5571 650.763 55.0671 652.203 50.3871C653.643 45.6471 656.043 41.9571 659.403 39.3171C662.763 36.6771 667.173 35.3571 672.633 35.3571C678.213 35.3571 682.653 36.6771 685.953 39.3171C689.313 41.9571 691.713 45.6471 693.153 50.3871C694.593 55.0671 695.313 60.5571 695.313 66.8571C695.313 73.0971 694.593 78.5871 693.153 83.3271C691.713 88.0671 689.313 91.7571 685.953 94.3971C682.653 97.0371 678.213 98.3571 672.633 98.3571ZM672.633 94.4871C676.893 94.4871 679.893 92.2671 681.633 87.8271C683.373 83.3271 684.243 76.3371 684.243 66.8571C684.243 57.3771 683.373 50.4171 681.633 45.9771C679.893 41.4771 676.893 39.2271 672.633 39.2271C668.433 39.2271 665.463 41.4771 663.723 45.9771C661.983 50.4171 661.113 57.3771 661.113 66.8571C661.113 76.3371 661.983 83.3271 663.723 87.8271C665.463 92.2671 668.433 94.4871 672.633 94.4871ZM725.074 98.3571C721.174 98.3571 717.544 97.8171 714.184 96.7371C710.884 95.7171 708.244 94.0671 706.264 91.7871C704.284 89.5071 703.294 86.5671 703.294 82.9671C703.294 80.0271 703.984 77.5371 705.364 75.4971C706.804 73.3971 708.664 71.6271 710.944 70.1871C713.224 68.7471 715.594 67.4871 718.054 66.4071C715.834 65.0871 713.764 63.7371 711.844 62.3571C709.984 60.9771 708.454 59.3571 707.254 57.4971C706.114 55.6371 705.544 53.3871 705.544 50.7471C705.544 46.8471 706.444 43.7871 708.244 41.5671C710.044 39.2871 712.414 37.6971 715.354 36.7971C718.354 35.8371 721.594 35.3571 725.074 35.3571C728.614 35.3571 731.854 35.8071 734.794 36.7071C737.794 37.6071 740.164 39.1071 741.904 41.2071C743.704 43.3071 744.604 46.1871 744.604 49.8471C744.604 52.1871 744.064 54.2871 742.984 56.1471C741.904 57.9471 740.464 59.5371 738.664 60.9171C736.924 62.2971 734.974 63.4671 732.814 64.4271C735.214 65.7471 737.464 67.2171 739.564 68.8371C741.724 70.3971 743.464 72.2271 744.784 74.3271C746.164 76.4271 746.854 79.0071 746.854 82.0671C746.854 85.9671 745.864 89.1171 743.884 91.5171C741.964 93.9171 739.354 95.6571 736.054 96.7371C732.754 97.8171 729.094 98.3571 725.074 98.3571ZM725.074 94.4871C727.114 94.4871 728.974 94.0971 730.654 93.3171C732.334 92.5371 733.654 91.3671 734.614 89.8071C735.634 88.1871 736.144 86.2071 736.144 83.8671C736.144 81.3471 735.514 79.1871 734.254 77.3871C732.994 75.5271 731.344 73.8771 729.304 72.4371C727.264 70.9971 725.014 69.6471 722.554 68.3871C720.934 69.2271 719.464 70.2471 718.144 71.4471C716.884 72.6471 715.864 74.1771 715.084 76.0371C714.364 77.8371 714.004 80.1471 714.004 82.9671C714.004 85.6071 714.484 87.7971 715.444 89.5371C716.464 91.2171 717.814 92.4771 719.494 93.3171C721.174 94.0971 723.034 94.4871 725.074 94.4871ZM728.404 62.1771C730.024 60.9171 731.344 59.3871 732.364 57.5871C733.384 55.7871 733.894 53.2071 733.894 49.8471C733.894 47.0271 733.414 44.8671 732.454 43.3671C731.554 41.8071 730.414 40.7271 729.034 40.1271C727.714 39.5271 726.394 39.2271 725.074 39.2271C723.814 39.2271 722.494 39.5271 721.114 40.1271C719.734 40.6671 718.564 41.6571 717.604 43.0971C716.704 44.4771 716.254 46.4271 716.254 48.9471C716.254 50.8671 716.794 52.6371 717.874 54.2571C719.014 55.8171 720.514 57.2871 722.374 58.6671C724.294 59.9871 726.304 61.1571 728.404 62.1771Z" fill="#004991"/>
<path d="M393.979 144.715C393.979 145.022 393.825 145.175 393.519 145.175H377.235C377.112 145.175 377.051 145.236 377.051 145.359V155.249C377.051 155.372 377.112 155.433 377.235 155.433H388.413C388.719 155.433 388.873 155.586 388.873 155.893V158.791C388.873 159.098 388.719 159.251 388.413 159.251H377.235C377.112 159.251 377.051 159.312 377.051 159.435V173.097C377.051 173.404 376.897 173.557 376.591 173.557H373.095C372.788 173.557 372.635 173.404 372.635 173.097V141.817C372.635 141.51 372.788 141.357 373.095 141.357H393.519C393.825 141.357 393.979 141.51 393.979 141.817V144.715ZM433.558 173.557C433.313 173.557 433.144 173.45 433.052 173.235L426.612 159.481C426.582 159.389 426.52 159.343 426.428 159.343H419.804C419.682 159.343 419.62 159.404 419.62 159.527V173.097C419.62 173.404 419.467 173.557 419.16 173.557H415.664C415.358 173.557 415.204 173.404 415.204 173.097V141.817C415.204 141.51 415.358 141.357 415.664 141.357H428.038C429.878 141.357 431.488 141.74 432.868 142.507C434.279 143.274 435.368 144.347 436.134 145.727C436.901 147.107 437.284 148.702 437.284 150.511C437.284 152.658 436.717 154.482 435.582 155.985C434.478 157.457 432.93 158.454 430.936 158.975C430.814 159.036 430.783 159.113 430.844 159.205L437.514 173.005C437.545 173.066 437.56 173.143 437.56 173.235C437.56 173.45 437.438 173.557 437.192 173.557H433.558ZM419.804 145.175C419.682 145.175 419.62 145.236 419.62 145.359V155.663C419.62 155.786 419.682 155.847 419.804 155.847H427.486C429.112 155.847 430.415 155.372 431.396 154.421C432.378 153.44 432.868 152.152 432.868 150.557C432.868 148.932 432.378 147.628 431.396 146.647C430.415 145.666 429.112 145.175 427.486 145.175H419.804ZM470.463 173.971C468.225 173.971 466.247 173.511 464.529 172.591C462.812 171.671 461.478 170.383 460.527 168.727C459.577 167.04 459.101 165.108 459.101 162.931V151.983C459.101 149.806 459.577 147.889 460.527 146.233C461.478 144.577 462.812 143.289 464.529 142.369C466.247 141.449 468.225 140.989 470.463 140.989C472.733 140.989 474.726 141.449 476.443 142.369C478.161 143.289 479.495 144.577 480.445 146.233C481.396 147.889 481.871 149.806 481.871 151.983V162.931C481.871 165.108 481.396 167.04 480.445 168.727C479.495 170.383 478.161 171.671 476.443 172.591C474.726 173.511 472.733 173.971 470.463 173.971ZM470.463 170.153C472.549 170.153 474.235 169.509 475.523 168.221C476.811 166.933 477.455 165.231 477.455 163.115V151.937C477.455 149.79 476.811 148.073 475.523 146.785C474.235 145.466 472.549 144.807 470.463 144.807C468.378 144.807 466.691 145.466 465.403 146.785C464.146 148.073 463.517 149.79 463.517 151.937V163.115C463.517 165.231 464.146 166.933 465.403 168.221C466.691 169.509 468.378 170.153 470.463 170.153ZM524.102 141.817C524.102 141.51 524.256 141.357 524.562 141.357H528.058C528.365 141.357 528.518 141.51 528.518 141.817V173.097C528.518 173.404 528.365 173.557 528.058 173.557H524.7C524.486 173.557 524.302 173.45 524.148 173.235L509.75 149.729C509.72 149.637 509.674 149.606 509.612 149.637C509.551 149.637 509.52 149.683 509.52 149.775L509.566 173.097C509.566 173.404 509.413 173.557 509.106 173.557H505.61C505.304 173.557 505.15 173.404 505.15 173.097V141.817C505.15 141.51 505.304 141.357 505.61 141.357H509.014C509.229 141.357 509.413 141.464 509.566 141.679L523.918 165.185C523.949 165.277 523.995 165.323 524.056 165.323C524.118 165.292 524.148 165.231 524.148 165.139L524.102 141.817ZM573.132 141.357C573.438 141.357 573.592 141.51 573.592 141.817V144.761C573.592 145.068 573.438 145.221 573.132 145.221H564.3C564.177 145.221 564.116 145.282 564.116 145.405V173.097C564.116 173.404 563.962 173.557 563.656 173.557H560.16C559.853 173.557 559.7 173.404 559.7 173.097V145.405C559.7 145.282 559.638 145.221 559.516 145.221H551.098C550.791 145.221 550.638 145.068 550.638 144.761V141.817C550.638 141.51 550.791 141.357 551.098 141.357H573.132ZM642.795 144.715C642.795 145.022 642.641 145.175 642.335 145.175H626.005C625.882 145.175 625.821 145.236 625.821 145.359V155.249C625.821 155.372 625.882 155.433 626.005 155.433H637.229C637.535 155.433 637.689 155.586 637.689 155.893V158.791C637.689 159.098 637.535 159.251 637.229 159.251H626.005C625.882 159.251 625.821 159.312 625.821 159.435V169.555C625.821 169.678 625.882 169.739 626.005 169.739H642.335C642.641 169.739 642.795 169.892 642.795 170.199V173.097C642.795 173.404 642.641 173.557 642.335 173.557H621.865C621.558 173.557 621.405 173.404 621.405 173.097V141.817C621.405 141.51 621.558 141.357 621.865 141.357H642.335C642.641 141.357 642.795 141.51 642.795 141.817V144.715ZM684.409 141.817C684.409 141.51 684.562 141.357 684.869 141.357H688.365C688.672 141.357 688.825 141.51 688.825 141.817V173.097C688.825 173.404 688.672 173.557 688.365 173.557H685.007C684.792 173.557 684.608 173.45 684.455 173.235L670.057 149.729C670.026 149.637 669.98 149.606 669.919 149.637C669.858 149.637 669.827 149.683 669.827 149.775L669.873 173.097C669.873 173.404 669.72 173.557 669.413 173.557H665.917C665.61 173.557 665.457 173.404 665.457 173.097V141.817C665.457 141.51 665.61 141.357 665.917 141.357H669.321C669.536 141.357 669.72 141.464 669.873 141.679L684.225 165.185C684.256 165.277 684.302 165.323 684.363 165.323C684.424 165.292 684.455 165.231 684.455 165.139L684.409 141.817ZM712.934 173.557C712.627 173.557 712.474 173.404 712.474 173.097V141.817C712.474 141.51 712.627 141.357 712.934 141.357H724.066C727.255 141.357 729.801 142.2 731.702 143.887C733.603 145.543 734.554 147.766 734.554 150.557V164.357C734.554 167.148 733.603 169.386 731.702 171.073C729.801 172.729 727.255 173.557 724.066 173.557H712.934ZM716.89 169.555C716.89 169.678 716.951 169.739 717.074 169.739H724.25C726.029 169.739 727.439 169.202 728.482 168.129C729.555 167.025 730.107 165.553 730.138 163.713V151.201C730.138 149.361 729.601 147.904 728.528 146.831C727.485 145.727 726.059 145.175 724.25 145.175H717.074C716.951 145.175 716.89 145.236 716.89 145.359V169.555Z" fill="#004991"/>
<defs>
<clipPath id="clip0_206_4">
<rect width="315" height="191.114" fill="white"/>
</clipPath>
</defs>
</svg>
