<svg width="940" height="343" viewBox="0 0 940 343" fill="none" xmlns="http://www.w3.org/2000/svg">
<g clip-path="url(#clip0_206_4)">
<path d="M409.5 267.057H94.5V258.443L252 254.223L409.5 258.443V267.057Z" fill="#004991"/>
<path d="M363.171 78.2617H140.829V234.925H363.171V78.2617Z" fill="#57D7FF"/>
<path d="M366.462 237.243V75.9429H137.538V237.243L94.5 258.443H409.5L366.462 237.243ZM145.867 84.2719H358.133V228.914H145.867V84.2719Z" fill="#0092CC"/>
<path d="M193.843 183.984V119.175H300.13C301.934 125.311 307.608 129.808 314.321 129.808C322.48 129.808 329.119 123.17 329.119 115.01C329.119 106.85 322.481 100.211 314.321 100.211C307.608 100.211 301.934 104.708 300.13 110.845H185.514V183.983C179.377 185.787 174.88 191.461 174.88 198.175C174.88 206.335 181.518 212.974 189.678 212.974C197.838 212.974 204.476 206.336 204.476 198.175C204.477 191.462 199.98 185.788 193.843 183.984ZM314.321 108.541C317.888 108.541 320.79 111.444 320.79 115.011C320.79 118.578 317.889 121.48 314.321 121.48C310.753 121.48 307.852 118.579 307.852 115.011C307.853 111.443 310.754 108.541 314.321 108.541ZM189.679 204.646C186.112 204.646 183.21 201.743 183.21 198.176C183.21 194.609 186.112 191.706 189.679 191.706C193.246 191.706 196.148 194.609 196.148 198.176C196.148 201.743 193.246 204.646 189.679 204.646ZM314.321 183.307C307.582 183.307 301.893 187.839 300.111 194.011H286.964C285.16 187.874 279.486 183.377 272.773 183.377C264.613 183.377 257.975 190.015 257.975 198.176C257.975 206.337 264.613 212.975 272.773 212.975C279.486 212.975 285.16 208.478 286.964 202.341H300.147C301.974 208.442 307.632 212.904 314.32 212.904C322.479 212.904 329.118 206.266 329.118 198.105C329.119 189.946 322.481 183.307 314.321 183.307ZM272.774 204.646C269.207 204.646 266.305 201.743 266.305 198.176C266.305 194.609 269.207 191.706 272.774 191.706C276.341 191.706 279.243 194.609 279.243 198.176C279.243 201.743 276.341 204.646 272.774 204.646ZM314.321 204.575C310.754 204.575 307.852 201.672 307.852 198.105C307.852 194.538 310.753 191.636 314.321 191.636C317.889 191.636 320.79 194.537 320.79 198.105C320.79 201.672 317.889 204.575 314.321 204.575ZM314.321 141.76C307.506 141.76 301.767 146.397 300.056 152.678H227.061V183.984C220.924 185.788 216.427 191.462 216.427 198.176C216.427 206.336 223.065 212.975 231.225 212.975C239.385 212.975 246.023 206.337 246.023 198.176C246.023 191.462 241.526 185.788 235.389 183.984V161.007H300.207C302.1 167 307.709 171.357 314.319 171.357C322.478 171.357 329.117 164.719 329.117 156.558C329.119 148.398 322.481 141.76 314.321 141.76ZM237.696 198.176C237.696 201.743 234.794 204.646 231.227 204.646C227.66 204.646 224.758 201.743 224.758 198.176C224.758 194.609 227.66 191.706 231.227 191.706C234.794 191.706 237.696 194.609 237.696 198.176ZM314.321 163.028C310.754 163.028 307.852 160.125 307.852 156.558C307.852 152.991 310.753 150.089 314.321 150.089C317.889 150.089 320.79 152.99 320.79 156.558C320.79 160.126 317.889 163.028 314.321 163.028Z" fill="white"/>
</g>
<path d="M475.394 172.5V148.38L459.644 124.8C458.564 123.12 457.364 121.59 456.044 120.21C454.784 118.77 453.434 117.57 451.994 116.61C450.554 115.59 448.964 115.02 447.224 114.9V113.1H456.404C458.624 113.1 460.604 113.61 462.344 114.63C464.144 115.59 465.704 116.82 467.024 118.32C468.404 119.82 469.574 121.38 470.534 123L483.134 142.17L501.134 113.1H506.264L485.564 146.76V172.5H475.394ZM555.744 172.86C554.004 172.86 552.084 172.62 549.984 172.14C547.944 171.6 545.934 170.52 543.954 168.9C542.034 167.22 540.384 164.64 539.004 161.16L536.844 155.85H512.364L505.074 172.5H500.664L526.674 113.1H530.094L550.164 161.16C551.364 164.1 552.684 166.32 554.124 167.82C555.624 169.26 557.484 170.1 559.704 170.34V172.41C559.224 172.53 558.594 172.62 557.814 172.68C557.094 172.8 556.404 172.86 555.744 172.86ZM514.074 151.98H535.044L524.784 127.41L514.074 151.98ZM559.668 172.5V170.07L594.768 116.88H574.338C570.978 116.88 568.338 117.72 566.418 119.4C564.558 121.02 563.628 123.75 563.628 127.59H561.288V120.3C561.288 119.1 561.498 117.96 561.918 116.88C562.338 115.74 563.088 114.84 564.168 114.18C565.308 113.46 566.898 113.1 568.938 113.1H609.168L572.718 168.63H608.358V172.5H559.668ZM662.512 173.04L624.172 126.87V172.5H620.032V123.9C620.032 121.44 619.462 119.43 618.322 117.87C617.242 116.25 615.112 115.44 611.932 115.44H611.302V113.1H617.422C620.662 113.1 623.272 113.58 625.252 114.54C627.292 115.44 629.002 116.76 630.382 118.5L661.612 155.76V113.1H665.752V173.04H662.512ZM673.803 178.44V172.5H710.883V178.44H673.803ZM722.906 172.5V123.09L714.716 128.31L712.736 125.88L726.686 113.1H733.166V172.5H722.906ZM767.133 174.3C761.673 174.3 757.263 172.98 753.903 170.34C750.543 167.7 748.143 164.01 746.703 159.27C745.263 154.53 744.543 149.04 744.543 142.8C744.543 136.5 745.263 131.01 746.703 126.33C748.143 121.59 750.543 117.9 753.903 115.26C757.263 112.62 761.673 111.3 767.133 111.3C772.713 111.3 777.153 112.62 780.453 115.26C783.813 117.9 786.213 121.59 787.653 126.33C789.093 131.01 789.813 136.5 789.813 142.8C789.813 149.04 789.093 154.53 787.653 159.27C786.213 164.01 783.813 167.7 780.453 170.34C777.153 172.98 772.713 174.3 767.133 174.3ZM767.133 170.43C771.393 170.43 774.393 168.21 776.133 163.77C777.873 159.27 778.743 152.28 778.743 142.8C778.743 133.32 777.873 126.36 776.133 121.92C774.393 117.42 771.393 115.17 767.133 115.17C762.933 115.17 759.963 117.42 758.223 121.92C756.483 126.36 755.613 133.32 755.613 142.8C755.613 152.28 756.483 159.27 758.223 163.77C759.963 168.21 762.933 170.43 767.133 170.43ZM819.574 174.3C815.674 174.3 812.044 173.76 808.684 172.68C805.384 171.66 802.744 170.01 800.764 167.73C798.784 165.45 797.794 162.51 797.794 158.91C797.794 155.97 798.484 153.48 799.864 151.44C801.304 149.34 803.164 147.57 805.444 146.13C807.724 144.69 810.094 143.43 812.554 142.35C810.334 141.03 808.264 139.68 806.344 138.3C804.484 136.92 802.954 135.3 801.754 133.44C800.614 131.58 800.044 129.33 800.044 126.69C800.044 122.79 800.944 119.73 802.744 117.51C804.544 115.23 806.914 113.64 809.854 112.74C812.854 111.78 816.094 111.3 819.574 111.3C823.114 111.3 826.354 111.75 829.294 112.65C832.294 113.55 834.664 115.05 836.404 117.15C838.204 119.25 839.104 122.13 839.104 125.79C839.104 128.13 838.564 130.23 837.484 132.09C836.404 133.89 834.964 135.48 833.164 136.86C831.424 138.24 829.474 139.41 827.314 140.37C829.714 141.69 831.964 143.16 834.064 144.78C836.224 146.34 837.964 148.17 839.284 150.27C840.664 152.37 841.354 154.95 841.354 158.01C841.354 161.91 840.364 165.06 838.384 167.46C836.464 169.86 833.854 171.6 830.554 172.68C827.254 173.76 823.594 174.3 819.574 174.3ZM819.574 170.43C821.614 170.43 823.474 170.04 825.154 169.26C826.834 168.48 828.154 167.31 829.114 165.75C830.134 164.13 830.644 162.15 830.644 159.81C830.644 157.29 830.014 155.13 828.754 153.33C827.494 151.47 825.844 149.82 823.804 148.38C821.764 146.94 819.514 145.59 817.054 144.33C815.434 145.17 813.964 146.19 812.644 147.39C811.384 148.59 810.364 150.12 809.584 151.98C808.864 153.78 808.504 156.09 808.504 158.91C808.504 161.55 808.984 163.74 809.944 165.48C810.964 167.16 812.314 168.42 813.994 169.26C815.674 170.04 817.534 170.43 819.574 170.43ZM822.904 138.12C824.524 136.86 825.844 135.33 826.864 133.53C827.884 131.73 828.394 129.15 828.394 125.79C828.394 122.97 827.914 120.81 826.954 119.31C826.054 117.75 824.914 116.67 823.534 116.07C822.214 115.47 820.894 115.17 819.574 115.17C818.314 115.17 816.994 115.47 815.614 116.07C814.234 116.61 813.064 117.6 812.104 119.04C811.204 120.42 810.754 122.37 810.754 124.89C810.754 126.81 811.294 128.58 812.374 130.2C813.514 131.76 815.014 133.23 816.874 134.61C818.794 135.93 820.804 137.1 822.904 138.12Z" fill="#004991"/>
<path d="M488.479 220.658C488.479 220.965 488.325 221.118 488.019 221.118H471.735C471.612 221.118 471.551 221.179 471.551 221.302V231.192C471.551 231.315 471.612 231.376 471.735 231.376H482.913C483.219 231.376 483.373 231.529 483.373 231.836V234.734C483.373 235.041 483.219 235.194 482.913 235.194H471.735C471.612 235.194 471.551 235.255 471.551 235.378V249.04C471.551 249.347 471.397 249.5 471.091 249.5H467.595C467.288 249.5 467.135 249.347 467.135 249.04V217.76C467.135 217.453 467.288 217.3 467.595 217.3H488.019C488.325 217.3 488.479 217.453 488.479 217.76V220.658ZM528.058 249.5C527.813 249.5 527.644 249.393 527.552 249.178L521.112 235.424C521.082 235.332 521.02 235.286 520.928 235.286H514.304C514.182 235.286 514.12 235.347 514.12 235.47V249.04C514.12 249.347 513.967 249.5 513.66 249.5H510.164C509.858 249.5 509.704 249.347 509.704 249.04V217.76C509.704 217.453 509.858 217.3 510.164 217.3H522.538C524.378 217.3 525.988 217.683 527.368 218.45C528.779 219.217 529.868 220.29 530.634 221.67C531.401 223.05 531.784 224.645 531.784 226.454C531.784 228.601 531.217 230.425 530.082 231.928C528.978 233.4 527.43 234.397 525.436 234.918C525.314 234.979 525.283 235.056 525.344 235.148L532.014 248.948C532.045 249.009 532.06 249.086 532.06 249.178C532.06 249.393 531.938 249.5 531.692 249.5H528.058ZM514.304 221.118C514.182 221.118 514.12 221.179 514.12 221.302V231.606C514.12 231.729 514.182 231.79 514.304 231.79H521.986C523.612 231.79 524.915 231.315 525.896 230.364C526.878 229.383 527.368 228.095 527.368 226.5C527.368 224.875 526.878 223.571 525.896 222.59C524.915 221.609 523.612 221.118 521.986 221.118H514.304ZM564.963 249.914C562.725 249.914 560.747 249.454 559.029 248.534C557.312 247.614 555.978 246.326 555.027 244.67C554.077 242.983 553.601 241.051 553.601 238.874V227.926C553.601 225.749 554.077 223.832 555.027 222.176C555.978 220.52 557.312 219.232 559.029 218.312C560.747 217.392 562.725 216.932 564.963 216.932C567.233 216.932 569.226 217.392 570.943 218.312C572.661 219.232 573.995 220.52 574.945 222.176C575.896 223.832 576.371 225.749 576.371 227.926V238.874C576.371 241.051 575.896 242.983 574.945 244.67C573.995 246.326 572.661 247.614 570.943 248.534C569.226 249.454 567.233 249.914 564.963 249.914ZM564.963 246.096C567.049 246.096 568.735 245.452 570.023 244.164C571.311 242.876 571.955 241.174 571.955 239.058V227.88C571.955 225.733 571.311 224.016 570.023 222.728C568.735 221.409 567.049 220.75 564.963 220.75C562.878 220.75 561.191 221.409 559.903 222.728C558.646 224.016 558.017 225.733 558.017 227.88V239.058C558.017 241.174 558.646 242.876 559.903 244.164C561.191 245.452 562.878 246.096 564.963 246.096ZM618.602 217.76C618.602 217.453 618.756 217.3 619.062 217.3H622.558C622.865 217.3 623.018 217.453 623.018 217.76V249.04C623.018 249.347 622.865 249.5 622.558 249.5H619.2C618.986 249.5 618.802 249.393 618.648 249.178L604.25 225.672C604.22 225.58 604.174 225.549 604.112 225.58C604.051 225.58 604.02 225.626 604.02 225.718L604.066 249.04C604.066 249.347 603.913 249.5 603.606 249.5H600.11C599.804 249.5 599.65 249.347 599.65 249.04V217.76C599.65 217.453 599.804 217.3 600.11 217.3H603.514C603.729 217.3 603.913 217.407 604.066 217.622L618.418 241.128C618.449 241.22 618.495 241.266 618.556 241.266C618.618 241.235 618.648 241.174 618.648 241.082L618.602 217.76ZM667.632 217.3C667.938 217.3 668.092 217.453 668.092 217.76V220.704C668.092 221.011 667.938 221.164 667.632 221.164H658.8C658.677 221.164 658.616 221.225 658.616 221.348V249.04C658.616 249.347 658.462 249.5 658.156 249.5H654.66C654.353 249.5 654.2 249.347 654.2 249.04V221.348C654.2 221.225 654.138 221.164 654.016 221.164H645.598C645.291 221.164 645.138 221.011 645.138 220.704V217.76C645.138 217.453 645.291 217.3 645.598 217.3H667.632ZM737.295 220.658C737.295 220.965 737.141 221.118 736.835 221.118H720.505C720.382 221.118 720.321 221.179 720.321 221.302V231.192C720.321 231.315 720.382 231.376 720.505 231.376H731.729C732.035 231.376 732.189 231.529 732.189 231.836V234.734C732.189 235.041 732.035 235.194 731.729 235.194H720.505C720.382 235.194 720.321 235.255 720.321 235.378V245.498C720.321 245.621 720.382 245.682 720.505 245.682H736.835C737.141 245.682 737.295 245.835 737.295 246.142V249.04C737.295 249.347 737.141 249.5 736.835 249.5H716.365C716.058 249.5 715.905 249.347 715.905 249.04V217.76C715.905 217.453 716.058 217.3 716.365 217.3H736.835C737.141 217.3 737.295 217.453 737.295 217.76V220.658ZM778.909 217.76C778.909 217.453 779.062 217.3 779.369 217.3H782.865C783.172 217.3 783.325 217.453 783.325 217.76V249.04C783.325 249.347 783.172 249.5 782.865 249.5H779.507C779.292 249.5 779.108 249.393 778.955 249.178L764.557 225.672C764.526 225.58 764.48 225.549 764.419 225.58C764.358 225.58 764.327 225.626 764.327 225.718L764.373 249.04C764.373 249.347 764.22 249.5 763.913 249.5H760.417C760.11 249.5 759.957 249.347 759.957 249.04V217.76C759.957 217.453 760.11 217.3 760.417 217.3H763.821C764.036 217.3 764.22 217.407 764.373 217.622L778.725 241.128C778.756 241.22 778.802 241.266 778.863 241.266C778.924 241.235 778.955 241.174 778.955 241.082L778.909 217.76ZM807.434 249.5C807.127 249.5 806.974 249.347 806.974 249.04V217.76C806.974 217.453 807.127 217.3 807.434 217.3H818.566C821.755 217.3 824.301 218.143 826.202 219.83C828.103 221.486 829.054 223.709 829.054 226.5V240.3C829.054 243.091 828.103 245.329 826.202 247.016C824.301 248.672 821.755 249.5 818.566 249.5H807.434ZM811.39 245.498C811.39 245.621 811.451 245.682 811.574 245.682H818.75C820.529 245.682 821.939 245.145 822.982 244.072C824.055 242.968 824.607 241.496 824.638 239.656V227.144C824.638 225.304 824.101 223.847 823.028 222.774C821.985 221.67 820.559 221.118 818.75 221.118H811.574C811.451 221.118 811.39 221.179 811.39 221.302V245.498Z" fill="#004991"/>
<defs>
<clipPath id="clip0_206_4">
<rect width="315" height="191.114" fill="white" transform="translate(94.5 75.9429)"/>
</clipPath>
</defs>
</svg>
