<svg width="300" height="300" viewBox="0 0 300 300" fill="none" xmlns="http://www.w3.org/2000/svg">
<rect width="300" height="300" fill="white"/>
<path d="M152.005 23.933L153.025 24.4234L255.775 83.7458C257.798 84.9138 259.141 86.9486 259.445 89.2275L259.511 90.2173V208.863C259.511 211.199 258.421 213.379 256.599 214.782L255.775 215.334L153.025 274.656C151.043 275.8 148.668 275.964 146.573 275.147L145.553 274.656L42.803 215.334C40.78 214.166 39.4366 212.131 39.1324 209.853L39.0667 208.863V90.2173C39.0667 87.8813 40.1571 85.7005 41.9787 84.2976L42.8031 83.7458L145.552 24.4234C147.204 23.4699 149.129 23.1975 150.937 23.6061L152.005 23.933ZM244.566 162.48L112.85 238.524L149.28 259.55L244.566 204.542V162.48ZM104.854 73.7975L105.34 225.605L237.046 149.552L104.854 73.7975ZM89.9183 73.7882L54.012 94.5156V204.551L90.4041 225.559L89.9183 73.7882ZM149.289 39.5165L112.327 60.8511L244.566 136.643V94.5249L149.289 39.5165Z" fill="url(#paint0_linear_8_5)"/>
<defs>
<linearGradient id="paint0_linear_8_5" x1="20967.3" y1="21400.4" x2="134.602" y2="2837.89" gradientUnits="userSpaceOnUse">
<stop stop-color="#4BA1FC"/>
<stop offset="1" stop-color="#EC2AED"/>
</linearGradient>
</defs>
</svg>
