<svg width="1080" height="1080" viewBox="0 0 1080 1080" fill="none" xmlns="http://www.w3.org/2000/svg">
<circle cx="540" cy="540" r="540" fill="white"/>
<g clip-path="url(#clip0_407_2)">
<path d="M781 686.435H299V673.254L540 666.797L781 673.254V686.435Z" fill="#004991"/>
<path d="M710.108 397.549H369.891V637.269H710.108V397.549Z" fill="#57D7FF"/>
<path d="M715.145 640.815V394H364.855V640.815L299 673.254H781L715.145 640.815ZM377.6 406.745H702.4V628.07H377.6V406.745Z" fill="#0092CC"/>
<path d="M451.011 559.319V460.152H613.648C616.408 469.541 625.09 476.422 635.362 476.422C647.847 476.422 658.006 466.265 658.006 453.779C658.006 441.292 647.848 431.134 635.362 431.134C625.09 431.134 616.408 438.015 613.648 447.405H438.266V559.318C428.875 562.078 421.994 570.76 421.994 581.034C421.994 593.52 432.151 603.679 444.638 603.679C457.124 603.679 467.281 593.522 467.281 581.034C467.282 570.762 460.401 562.08 451.011 559.319ZM635.362 443.88C640.82 443.88 645.261 448.322 645.261 453.78C645.261 459.238 640.822 463.679 635.362 463.679C629.903 463.679 625.463 459.24 625.463 453.78C625.465 448.32 629.904 443.88 635.362 443.88ZM444.639 590.936C439.181 590.936 434.74 586.494 434.74 581.035C434.74 575.577 439.181 571.135 444.639 571.135C450.097 571.135 454.538 575.577 454.538 581.035C454.538 586.494 450.097 590.936 444.639 590.936ZM635.362 558.284C625.05 558.284 616.345 565.218 613.618 574.662H593.501C590.741 565.272 582.059 558.391 571.787 558.391C559.301 558.391 549.143 568.548 549.143 581.035C549.143 593.523 559.301 603.68 571.787 603.68C582.059 603.68 590.741 596.799 593.501 587.409H613.674C616.469 596.744 625.127 603.572 635.361 603.572C647.845 603.572 658.004 593.414 658.004 580.927C658.006 568.442 647.848 558.284 635.362 558.284ZM571.788 590.936C566.33 590.936 561.89 586.494 561.89 581.035C561.89 575.577 566.33 571.135 571.788 571.135C577.246 571.135 581.687 575.577 581.687 581.035C581.687 586.494 577.246 590.936 571.788 590.936ZM635.362 590.827C629.904 590.827 625.463 586.385 625.463 580.927C625.463 575.469 629.903 571.028 635.362 571.028C640.822 571.028 645.261 575.467 645.261 580.927C645.261 586.385 640.822 590.827 635.362 590.827ZM635.362 494.71C624.934 494.71 616.152 501.806 613.534 511.416H501.84V559.319C492.449 562.08 485.568 570.762 485.568 581.035C485.568 593.522 495.725 603.68 508.211 603.68C520.698 603.68 530.855 593.523 530.855 581.035C530.855 570.762 523.974 562.08 514.583 559.319V524.161H613.765C616.662 533.331 625.245 539.998 635.359 539.998C647.844 539.998 658.002 529.841 658.002 517.353C658.006 504.867 647.848 494.71 635.362 494.71ZM518.113 581.035C518.113 586.494 513.673 590.936 508.214 590.936C502.756 590.936 498.316 586.494 498.316 581.035C498.316 575.577 502.756 571.135 508.214 571.135C513.673 571.135 518.113 575.577 518.113 581.035ZM635.362 527.254C629.904 527.254 625.463 522.812 625.463 517.353C625.463 511.895 629.903 507.455 635.362 507.455C640.822 507.455 645.261 511.894 645.261 517.353C645.261 522.813 640.822 527.254 635.362 527.254Z" fill="white"/>
</g>
<defs>
<clipPath id="clip0_407_2">
<rect width="482" height="292.435" fill="white" transform="translate(299 394)"/>
</clipPath>
</defs>
</svg>
