<svg width="1440" height="1024" viewBox="0 0 1440 1024" fill="none" xmlns="http://www.w3.org/2000/svg">
<rect width="1440" height="1024" fill="url(#paint0_linear_117_149)"/>
<path d="M635 426.75C635 403.14 654.14 384 677.75 384H720.5V469.5H677.75C654.14 469.5 635 450.36 635 426.75V426.75Z" fill="#F24E1E"/>
<path d="M635 512.25C635 488.64 654.14 469.5 677.75 469.5H720.5V555H677.75C654.14 555 635 535.86 635 512.25V512.25Z" fill="#A259FF"/>
<rect x="720.5" y="469.5" width="85.5" height="85.5" rx="42.75" fill="#1ABCFE"/>
<path d="M635 597.75C635 574.14 654.14 555 677.75 555H720.5V597.75C720.5 621.36 701.36 640.5 677.75 640.5V640.5C654.14 640.5 635 621.36 635 597.75V597.75Z" fill="#0ACF83"/>
<path d="M720.5 384H763.25C786.86 384 806 403.14 806 426.75V426.75C806 450.36 786.86 469.5 763.25 469.5H720.5V384Z" fill="#FF7262"/>
<defs>
<linearGradient id="paint0_linear_117_149" x1="-851.077" y1="-157.118" x2="-601.984" y2="948.134" gradientUnits="userSpaceOnUse">
<stop stop-color="#0BBFAA"/>
<stop offset="1" stop-color="#000606"/>
<stop offset="1"/>
</linearGradient>
</defs>
</svg>
