<svg width="1440" height="1024" viewBox="0 0 1440 1024" fill="none" xmlns="http://www.w3.org/2000/svg">
<rect width="1440" height="1024" fill="#121212"/>
<path d="M628.97 549.3C624.77 549.3 620.87 549.233 617.27 549.1C613.737 548.967 610.504 548.8 607.57 548.6C604.637 548.467 602.037 548.267 599.77 548C597.504 547.8 595.604 547.6 594.07 547.4L594.97 539.6C596.904 539.867 599.104 540.1 601.57 540.3C604.104 540.5 606.87 540.667 609.87 540.8C612.937 540.867 616.204 540.933 619.67 541C623.137 541.067 626.837 541.1 630.77 541.1C635.17 541.1 639.104 540.833 642.57 540.3C646.037 539.767 648.937 538.967 651.27 537.9C653.67 536.767 655.504 535.4 656.77 533.8C658.037 532.2 658.67 530.367 658.67 528.3C658.67 526.833 658.304 525.4 657.57 524C656.837 522.533 655.704 521.3 654.17 520.3C652.637 519.3 650.604 518.8 648.07 518.8C644.87 518.8 641.67 519.633 638.47 521.3C635.337 522.967 632.337 525.067 629.47 527.6C626.67 530.067 624.17 532.6 621.97 535.2C619.77 537.8 618.004 540.067 616.67 542L607.97 541.7C610.104 538.233 612.637 534.7 615.57 531.1C618.57 527.433 621.837 524.067 625.37 521C628.97 517.867 632.737 515.367 636.67 513.5C640.604 511.567 644.604 510.6 648.67 510.6C652.337 510.6 655.47 511.367 658.07 512.9C660.737 514.367 662.77 516.367 664.17 518.9C665.637 521.433 666.37 524.3 666.37 527.5C666.37 531.433 665.204 535.067 662.87 538.4C660.604 541.667 656.737 544.3 651.27 546.3C645.804 548.3 638.37 549.3 628.97 549.3ZM613.37 538.1L611.37 476.6H619.47L621.47 531.1L613.37 538.1ZM676.679 571L674.879 562.8C678.879 562.267 682.546 561.5 685.879 560.5C689.279 559.567 692.179 558.2 694.579 556.4C697.046 554.6 698.946 552.233 700.279 549.3C701.612 546.367 702.279 542.7 702.279 538.3C702.279 533.767 701.446 530 699.779 527C698.112 524 695.946 522.5 693.279 522.5C691.879 522.5 690.579 523.033 689.379 524.1C688.179 525.167 687.179 526.6 686.379 528.4C685.646 530.2 685.279 532.167 685.279 534.3C685.279 535.5 685.546 536.5 686.079 537.3C686.612 538.033 687.379 538.633 688.379 539.1C689.446 539.5 690.779 539.8 692.379 540C693.979 540.2 695.846 540.3 697.979 540.3H719.079C720.479 540.3 721.479 540.7 722.079 541.5C722.746 542.233 723.079 543.133 723.079 544.2C723.079 545.267 722.612 546.267 721.679 547.2C720.746 548.067 719.546 548.5 718.079 548.5H694.179C691.179 548.5 688.379 548.067 685.779 547.2C683.246 546.333 681.179 545 679.579 543.2C678.046 541.333 677.279 538.9 677.279 535.9C677.279 533.1 677.712 530.433 678.579 527.9C679.446 525.3 680.612 523 682.079 521C683.612 518.933 685.379 517.3 687.379 516.1C689.446 514.9 691.679 514.3 694.079 514.3C697.146 514.3 699.879 515.2 702.279 517C704.679 518.8 706.579 521.533 707.979 525.2C709.379 528.8 710.079 533.367 710.079 538.9C710.079 545.1 708.812 550.433 706.279 554.9C703.812 559.433 700.079 563.033 695.079 565.7C690.146 568.367 684.012 570.133 676.679 571ZM789.047 548.5C787.314 548.5 785.114 548.333 782.447 548C779.847 547.6 777.18 546.933 774.447 546C771.78 545.067 769.514 543.767 767.647 542.1L775.847 538C778.18 538.933 780.58 539.567 783.047 539.9C785.58 540.167 787.914 540.3 790.047 540.3C791.447 540.3 792.447 540.7 793.047 541.5C793.714 542.233 794.047 543.133 794.047 544.2C794.047 545.267 793.58 546.267 792.647 547.2C791.714 548.067 790.514 548.5 789.047 548.5ZM718.047 548.5L719.047 540.3H739.947C745.747 540.3 750.747 540.067 754.947 539.6C759.214 539.067 762.714 538.3 765.447 537.3C768.18 536.3 770.214 535.033 771.547 533.5C772.88 531.9 773.547 530.033 773.547 527.9C773.547 526.767 773.18 525.533 772.447 524.2C771.714 522.867 770.58 521.733 769.047 520.8C767.514 519.8 765.48 519.3 762.947 519.3C759.747 519.3 756.547 520.133 753.347 521.8C750.214 523.467 747.214 525.567 744.347 528.1C741.547 530.567 739.047 533.1 736.847 535.7C734.647 538.3 732.88 540.567 731.547 542.5L722.847 542.2C724.98 538.733 727.514 535.2 730.447 531.6C733.447 527.933 736.714 524.567 740.247 521.5C743.847 518.367 747.614 515.867 751.547 514C755.48 512.067 759.48 511.1 763.547 511.1C767.214 511.1 770.347 511.867 772.947 513.4C775.614 514.867 777.647 516.867 779.047 519.4C780.514 521.933 781.247 524.8 781.247 528C781.247 531.133 780.114 534.3 777.847 537.5C775.58 540.633 771.68 543.1 766.147 544.9C763.347 545.833 760.147 546.567 756.547 547.1C752.947 547.633 748.847 548 744.247 548.2C739.647 548.4 734.414 548.5 728.547 548.5H718.047ZM727.547 538.6L725.547 476.6H733.647L735.647 531.6L727.547 538.6ZM789.043 548.5L789.943 540.3C793.41 540.3 796.81 540.033 800.143 539.5C803.476 538.967 806.743 538.2 809.943 537.2C813.143 536.2 816.21 535 819.143 533.6C822.143 532.133 824.976 530.467 827.643 528.6C825.91 527.067 823.91 525.733 821.643 524.6C819.376 523.467 816.876 522.6 814.143 522C811.476 521.333 808.643 521 805.643 521C804.576 521 803.576 521.033 802.643 521.1C801.71 521.167 800.776 521.3 799.843 521.5C798.91 521.633 797.843 521.833 796.643 522.1L795.043 514.5C796.843 513.967 798.643 513.567 800.443 513.3C802.243 512.967 803.976 512.8 805.643 512.8C809.11 512.8 812.243 513.233 815.043 514.1C817.843 514.9 820.376 515.9 822.643 517.1C824.976 518.3 827.143 519.5 829.143 520.7C831.21 521.9 833.21 522.933 835.143 523.8C837.076 524.6 839.076 525 841.143 525H843.243L843.943 532.2C841.076 532.2 838.443 532.6 836.043 533.4C833.643 534.2 831.276 535.233 828.943 536.5C826.676 537.7 824.276 539 821.743 540.4C819.21 541.733 816.41 543.033 813.343 544.3C810.276 545.5 806.743 546.5 802.743 547.3C798.81 548.1 794.243 548.5 789.043 548.5ZM805.743 502.5C804.343 502.5 803.143 502.033 802.143 501.1C801.21 500.1 800.743 498.933 800.743 497.6C800.743 496.267 801.21 495.1 802.143 494.1C803.143 493.1 804.343 492.6 805.743 492.6C807.076 492.6 808.21 493.1 809.143 494.1C810.143 495.1 810.643 496.267 810.643 497.6C810.643 498.933 810.143 500.1 809.143 501.1C808.21 502.033 807.076 502.5 805.743 502.5Z" fill="#9E9EFF"/>
</svg>
