<svg width="1440" height="1024" viewBox="0 0 1440 1024" fill="none" xmlns="http://www.w3.org/2000/svg">
<rect width="1440" height="1024" fill="url(#paint0_linear_117_149)"/>
<g clip-path="url(#clip0_117_149)">
<rect x="615" y="411" width="218" height="262" rx="100" fill="white"/>
<path d="M720.001 387C649.317 387 592 444.307 592 515.001C592 571.555 628.676 619.536 679.535 636.461C685.932 637.646 688.281 633.684 688.281 630.303C688.281 627.251 688.161 617.168 688.107 606.473C652.497 614.215 644.983 591.37 644.983 591.37C639.16 576.575 630.77 572.64 630.77 572.64C619.157 564.696 631.646 564.86 631.646 564.86C644.499 565.762 651.267 578.05 651.267 578.05C662.684 597.618 681.212 591.961 688.516 588.69C689.665 580.418 692.982 574.77 696.643 571.574C668.212 568.338 638.325 557.362 638.325 508.316C638.325 494.341 643.325 482.922 651.513 473.958C650.184 470.734 645.803 457.716 652.753 440.084C652.753 440.084 663.502 436.644 687.963 453.205C698.173 450.369 709.123 448.947 720.001 448.898C730.879 448.947 741.838 450.368 752.067 453.205C776.498 436.645 787.232 440.085 787.232 440.085C794.199 457.715 789.816 470.735 788.487 473.958C796.694 482.922 801.66 494.341 801.66 508.316C801.66 557.479 771.716 568.304 743.213 571.473C747.804 575.445 751.895 583.235 751.895 595.177C751.895 612.303 751.747 626.087 751.747 630.303C751.747 633.71 754.051 637.701 760.539 636.443C811.37 619.5 848 571.537 848 515.002C848 444.307 790.691 387 720.001 387ZM639.941 569.34C639.659 569.976 638.658 570.167 637.747 569.73C636.818 569.313 636.297 568.446 636.597 567.808C636.873 567.153 637.876 566.97 638.802 567.409C639.732 567.827 640.262 568.702 639.941 569.34ZM646.237 574.958C645.627 575.524 644.433 575.261 643.623 574.367C642.786 573.475 642.629 572.281 643.248 571.707C643.878 571.141 645.035 571.406 645.874 572.298C646.712 573.201 646.874 574.386 646.237 574.958ZM650.557 582.146C649.772 582.691 648.49 582.18 647.697 581.042C646.913 579.904 646.913 578.539 647.714 577.992C648.509 577.445 649.772 577.937 650.575 579.067C651.357 580.224 651.357 581.589 650.556 582.147L650.557 582.146ZM657.861 590.471C657.16 591.245 655.665 591.037 654.571 589.981C653.452 588.949 653.141 587.485 653.845 586.711C654.555 585.935 656.058 586.153 657.16 587.201C658.27 588.231 658.61 589.706 657.861 590.471ZM667.303 593.281C666.993 594.284 665.553 594.74 664.104 594.314C662.656 593.875 661.709 592.701 662.001 591.688C662.302 590.678 663.748 590.204 665.208 590.66C666.654 591.096 667.604 592.261 667.303 593.281ZM678.047 594.474C678.083 595.529 676.854 596.404 675.332 596.424C673.802 596.458 672.563 595.604 672.546 594.564C672.546 593.499 673.748 592.632 675.279 592.606C676.801 592.576 678.047 593.424 678.047 594.474ZM688.602 594.069C688.784 595.099 687.727 596.157 686.215 596.439C684.73 596.71 683.354 596.074 683.165 595.053C682.981 593.997 684.058 592.939 685.541 592.666C687.055 592.403 688.409 593.022 688.602 594.069Z" fill="#161614"/>
</g>
<defs>
<linearGradient id="paint0_linear_117_149" x1="-851.077" y1="-157.118" x2="-601.984" y2="948.134" gradientUnits="userSpaceOnUse">
<stop stop-color="#0BBFAA"/>
<stop offset="1" stop-color="#000606"/>
<stop offset="1"/>
</linearGradient>
<clipPath id="clip0_117_149">
<rect x="592" y="387" width="256" height="250" rx="125" fill="white"/>
</clipPath>
</defs>
</svg>
