<svg width="1080" height="1080" viewBox="0 0 1080 1080" fill="none" xmlns="http://www.w3.org/2000/svg">
<rect width="1080" height="1080" fill="black"/>
<path d="M147.045 513.2C167.045 536.4 187.045 559.6 206.645 582.8C207.045 583.2 207.445 583.6 207.445 584.4V680H236.645V584.8C236.645 584 237.045 583.6 237.445 582.8C246.645 572.4 255.845 561.6 265.045 550.8C287.045 525.2 308.645 499.6 330.645 474H292.245C279.045 489.2 265.845 504.4 253.045 519.6C242.645 531.6 232.645 543.2 222.645 554.8C222.645 555.2 222.245 555.2 222.245 555.6C221.845 555.2 221.445 555.2 221.445 554.8C199.045 528.4 176.245 502.4 153.845 476C153.445 475.2 152.645 474.8 152.245 474H113.445C124.645 487.2 135.845 500 147.045 513.2ZM538.436 536C521.636 498.4 485.636 474 444.436 474C388.036 474 342.836 520 342.836 575.6C342.836 632 388.836 677.6 444.436 677.6C471.236 677.6 498.036 666.8 516.836 647.2V680H546.436V575.6C546.436 562 543.636 548.8 538.436 536ZM444.436 648C404.836 648 372.436 615.6 372.436 575.6C372.436 536 404.836 503.6 444.436 503.6C484.436 503.6 516.836 536 516.836 575.6C516.836 615.6 484.436 648 444.436 648ZM748.477 650.4H627.277L751.677 474H580.477V503.6L694.877 503.2L570.477 680H748.477V650.4ZM951.539 562C951.539 513.6 912.339 474 863.139 474C814.739 474 775.539 513.6 775.539 562V680H805.139V561.6C805.139 529.6 831.539 503.6 863.539 503.2C895.539 503.6 921.939 529.6 921.939 561.6V680H951.539V562Z" fill="url(#paint0_linear_7_207)"/>
<defs>
<linearGradient id="paint0_linear_7_207" x1="109" y1="800" x2="972" y2="800" gradientUnits="userSpaceOnUse">
<stop stop-color="#1E9BFF"/>
<stop offset="1" stop-color="#9CF47E"/>
</linearGradient>
</defs>
</svg>
