<svg width="1440" height="1024" viewBox="0 0 1440 1024" fill="none" xmlns="http://www.w3.org/2000/svg">
<rect width="1440" height="1024" fill="url(#paint0_linear_117_149)"/>
<path d="M659.716 457.551C659.716 443.464 663.899 441.188 689.187 436.255C714.474 431.321 721.5 421 721.5 421C721.5 421 728.531 431.321 753.819 436.255C779.106 441.188 783.29 443.464 783.29 457.551M649 458.462H721.5H794M652.127 538.115H721.5H790.879M658.901 538.275C658.901 549.701 675.146 555.356 691.305 555.463C707.464 555.571 721.5 566 721.5 566C721.5 566 735.541 555.571 751.695 555.463C767.849 555.356 784.105 549.701 784.105 538.275M667.991 538.327V459.202M703.104 459.027V538.108M775.014 538.327V459.202M739.896 459.027V538.108" stroke="white" stroke-linecap="round" stroke-linejoin="round"/>
<path d="M720 593.188C718.917 597.062 715.427 600.208 709.531 602.625C704.677 604.604 699.896 605.594 695.188 605.594C690.229 605.594 686.01 604.844 682.531 603.344C677.99 601.406 675.719 598.458 675.719 594.5C675.719 589.896 679.198 586.542 686.156 584.438C690.698 583.042 695.719 582.344 701.219 582.344C704.135 582.344 705.594 582.656 705.594 583.281C705.594 583.99 704 584.458 700.812 584.688C696.167 585.042 692.156 585.708 688.781 586.688C682.573 588.479 679.469 591.083 679.469 594.5C679.469 597.188 681.365 599.167 685.156 600.438C687.948 601.375 691.292 601.844 695.188 601.844C699.458 601.844 703.771 600.948 708.125 599.156C712.875 597.177 715.625 594.854 716.375 592.188C716.5 591.708 716.562 591.188 716.562 590.625C716.562 589 716.021 587.01 714.938 584.656C714.812 584.385 714.75 584.104 714.75 583.812C714.75 582.604 715.406 582 716.719 582C717.469 582 718.01 582.365 718.344 583.094C719.656 585.948 720.312 588.458 720.312 590.625C720.312 591.542 720.208 592.396 720 593.188ZM711.406 578.812L710.344 580.531C709.969 581.135 709.458 581.438 708.812 581.438C708.292 581.438 707.833 581.26 707.438 580.906C707.042 580.531 706.844 580.083 706.844 579.562C706.844 579.229 706.948 578.885 707.156 578.531L708.219 576.812C708.594 576.208 709.104 575.906 709.75 575.906C710.271 575.906 710.729 576.094 711.125 576.469C711.521 576.823 711.719 577.26 711.719 577.781C711.719 578.115 711.615 578.458 711.406 578.812ZM729 592.125C729.042 592.583 729.062 593.031 729.062 593.469C729.062 596.24 728.615 597.625 727.719 597.625C727.052 597.625 726.5 596.552 726.062 594.406C725.833 593.26 725.479 590.625 725 586.5C724.688 583.792 724.333 580.375 723.938 576.25V576.031C723.938 575.094 724.177 574.302 724.656 573.656C725.115 573.031 725.635 572.719 726.219 572.719C726.927 572.719 727.323 573.188 727.406 574.125C727.802 578.333 728.333 584.333 729 592.125ZM750.906 596.219C752.281 596.219 752.969 597.344 752.969 599.594L752.719 599.719H751.688C748.375 599.719 745.26 600.969 742.344 603.469L739.125 608.531C737.521 610.594 733.594 611.625 727.344 611.625H726.938C725.646 611.625 725 611.24 725 610.469C725 609.594 726.854 608.948 730.562 608.531C734.875 607.448 737.031 606.406 737.031 605.406C738.865 601.51 741.458 598.917 744.812 597.625C747.25 596.688 749.281 596.219 750.906 596.219ZM764.75 586.656C765.188 587.719 765.406 588.917 765.406 590.25C765.406 592.771 764.781 594.646 763.531 595.875C762.156 597.25 760.115 598.302 757.406 599.031C755.219 599.615 753.052 599.906 750.906 599.906C749.656 599.906 749.031 599.281 749.031 598.031C749.031 596.781 749.656 596.156 750.906 596.156C753.031 596.156 755.125 595.844 757.188 595.219C759.5 594.49 760.927 593.562 761.469 592.438C761.635 592.062 761.719 591.729 761.719 591.438V591.25C761.677 590.896 761.479 590.719 761.125 590.719C761.042 590.719 760.938 590.729 760.812 590.75C760.167 590.875 759.552 590.938 758.969 590.938C756.76 590.938 755.656 590 755.656 588.125C755.656 586.917 756.115 585.781 757.031 584.719C758.031 583.573 759.219 583 760.594 583C762.406 583 763.792 584.219 764.75 586.656ZM764.094 577.219C762.344 577.969 760.24 578.344 757.781 578.344C755.552 578.344 754.438 577.875 754.438 576.938C754.438 576.271 755.385 575.792 757.281 575.5C758.573 575.312 760.354 574.74 762.625 573.781C762.896 573.656 763.167 573.594 763.438 573.594C764.646 573.594 765.25 574.25 765.25 575.562C765.25 576.354 764.865 576.906 764.094 577.219Z" fill="white"/>
<defs>
<linearGradient id="paint0_linear_117_149" x1="-851.077" y1="-157.118" x2="-601.984" y2="948.134" gradientUnits="userSpaceOnUse">
<stop stop-color="#0BBFAA"/>
<stop offset="1" stop-color="#000606"/>
<stop offset="1"/>
</linearGradient>
</defs>
</svg>
