<svg width="390" height="844" viewBox="0 0 390 844" fill="none" xmlns="http://www.w3.org/2000/svg">
<rect width="390" height="844" fill="url(#paint0_linear_1_2)"/>
<path d="M134.716 367.551C134.716 353.464 138.899 351.188 164.187 346.255C189.474 341.321 196.5 331 196.5 331C196.5 331 203.531 341.321 228.819 346.255C254.106 351.188 258.29 353.464 258.29 367.551M124 368.462H196.5H269M127.127 448.115H196.5H265.879M133.901 448.275C133.901 459.701 150.146 465.356 166.305 465.463C182.464 465.571 196.5 476 196.5 476C196.5 476 210.541 465.571 226.695 465.463C242.849 465.356 259.105 459.701 259.105 448.275M142.991 448.327V369.202M178.104 369.027V448.108M250.014 448.327V369.202M214.896 369.027V448.108" stroke="white" stroke-linecap="round" stroke-linejoin="round"/>
<path d="M195 503.188C193.917 507.062 190.427 510.208 184.531 512.625C179.677 514.604 174.896 515.594 170.188 515.594C165.229 515.594 161.01 514.844 157.531 513.344C152.99 511.406 150.719 508.458 150.719 504.5C150.719 499.896 154.198 496.542 161.156 494.438C165.698 493.042 170.719 492.344 176.219 492.344C179.135 492.344 180.594 492.656 180.594 493.281C180.594 493.99 179 494.458 175.812 494.688C171.167 495.042 167.156 495.708 163.781 496.688C157.573 498.479 154.469 501.083 154.469 504.5C154.469 507.188 156.365 509.167 160.156 510.438C162.948 511.375 166.292 511.844 170.188 511.844C174.458 511.844 178.771 510.948 183.125 509.156C187.875 507.177 190.625 504.854 191.375 502.188C191.5 501.708 191.562 501.188 191.562 500.625C191.562 499 191.021 497.01 189.938 494.656C189.812 494.385 189.75 494.104 189.75 493.812C189.75 492.604 190.406 492 191.719 492C192.469 492 193.01 492.365 193.344 493.094C194.656 495.948 195.312 498.458 195.312 500.625C195.312 501.542 195.208 502.396 195 503.188ZM186.406 488.812L185.344 490.531C184.969 491.135 184.458 491.438 183.812 491.438C183.292 491.438 182.833 491.26 182.438 490.906C182.042 490.531 181.844 490.083 181.844 489.562C181.844 489.229 181.948 488.885 182.156 488.531L183.219 486.812C183.594 486.208 184.104 485.906 184.75 485.906C185.271 485.906 185.729 486.094 186.125 486.469C186.521 486.823 186.719 487.26 186.719 487.781C186.719 488.115 186.615 488.458 186.406 488.812ZM204 502.125C204.042 502.583 204.062 503.031 204.062 503.469C204.062 506.24 203.615 507.625 202.719 507.625C202.052 507.625 201.5 506.552 201.062 504.406C200.833 503.26 200.479 500.625 200 496.5C199.688 493.792 199.333 490.375 198.938 486.25V486.031C198.938 485.094 199.177 484.302 199.656 483.656C200.115 483.031 200.635 482.719 201.219 482.719C201.927 482.719 202.323 483.188 202.406 484.125C202.802 488.333 203.333 494.333 204 502.125ZM225.906 506.219C227.281 506.219 227.969 507.344 227.969 509.594L227.719 509.719H226.688C223.375 509.719 220.26 510.969 217.344 513.469L214.125 518.531C212.521 520.594 208.594 521.625 202.344 521.625H201.938C200.646 521.625 200 521.24 200 520.469C200 519.594 201.854 518.948 205.562 518.531C209.875 517.448 212.031 516.406 212.031 515.406C213.865 511.51 216.458 508.917 219.812 507.625C222.25 506.688 224.281 506.219 225.906 506.219ZM239.75 496.656C240.188 497.719 240.406 498.917 240.406 500.25C240.406 502.771 239.781 504.646 238.531 505.875C237.156 507.25 235.115 508.302 232.406 509.031C230.219 509.615 228.052 509.906 225.906 509.906C224.656 509.906 224.031 509.281 224.031 508.031C224.031 506.781 224.656 506.156 225.906 506.156C228.031 506.156 230.125 505.844 232.188 505.219C234.5 504.49 235.927 503.562 236.469 502.438C236.635 502.062 236.719 501.729 236.719 501.438V501.25C236.677 500.896 236.479 500.719 236.125 500.719C236.042 500.719 235.938 500.729 235.812 500.75C235.167 500.875 234.552 500.938 233.969 500.938C231.76 500.938 230.656 500 230.656 498.125C230.656 496.917 231.115 495.781 232.031 494.719C233.031 493.573 234.219 493 235.594 493C237.406 493 238.792 494.219 239.75 496.656ZM239.094 487.219C237.344 487.969 235.24 488.344 232.781 488.344C230.552 488.344 229.438 487.875 229.438 486.938C229.438 486.271 230.385 485.792 232.281 485.5C233.573 485.312 235.354 484.74 237.625 483.781C237.896 483.656 238.167 483.594 238.438 483.594C239.646 483.594 240.25 484.25 240.25 485.562C240.25 486.354 239.865 486.906 239.094 487.219Z" fill="white"/>
<defs>
<linearGradient id="paint0_linear_1_2" x1="-230.5" y1="-129.5" x2="216" y2="521.5" gradientUnits="userSpaceOnUse">
<stop stop-color="#0BBFAA"/>
<stop offset="1" stop-color="#000606"/>
<stop offset="1"/>
</linearGradient>
</defs>
</svg>
